<svg width="20" height="20" viewBox="0 0 20 20" fill="none" xmlns="http://www.w3.org/2000/svg">
<g clip-path="url(#clip0)">
<path d="M17.3977 0H2.48539C1.1147 0 0 1.12125 0 2.5V17.5C0 18.8787 1.1147 20 2.48539 20H17.3977C18.7684 20 19.8831 18.8787 19.8831 17.5V2.5C19.8831 1.12125 18.7684 0 17.3977 0Z" fill="#1976D2"/>
<path d="M16.7764 10H13.6696V7.5C13.6696 6.81 14.2264 6.875 14.9123 6.875H16.155V3.75H13.6696C11.6105 3.75 9.94155 5.42875 9.94155 7.5V10H7.45616V13.125H9.94155V20H13.6696V13.125H15.5337L16.7764 10Z" fill="#FAFAFA"/>
</g>
<defs>
<clipPath id="clip0">
<rect width="19.8831" height="20" fill="white"/>
</clipPath>
</defs>
</svg>
