<svg width="250" height="250" viewBox="0 0 250 250" fill="none" xmlns="http://www.w3.org/2000/svg">
<path d="M204 64C204 64 192 37 165.5 33C139 29 120.5 48.5 101 58.5C90.7901 63.735 79.1251 61.705 68.2851 64.24C33.6201 72.345 20.5601 123.12 35.0001 152C47.5001 177 69.5001 190 103 193C136.5 196 160 199.5 190 175C220 150.5 218 99.5 204 64Z" fill="#FF5722"/>
<path opacity="0.7" d="M204 64C204 64 192 37 165.5 33C139 29 120.5 48.5 101 58.5C90.7901 63.735 79.1251 61.705 68.2851 64.24C33.6201 72.345 20.5601 123.12 35.0001 152C47.5001 177 69.5001 190 103 193C136.5 196 160 199.5 190 175C220 150.5 218 99.5 204 64Z" fill="white"/>
<path d="M196.5 98.665V103H214.165" stroke="#263238" stroke-linecap="round" stroke-linejoin="round"/>
<path d="M205.165 104V109H194.165" stroke="#263238" stroke-linecap="round" stroke-linejoin="round"/>
<path d="M196.835 110.665V114.665H211.165" stroke="#263238" stroke-linecap="round" stroke-linejoin="round"/>
<path d="M209.835 109.335H217.835" stroke="#263238" stroke-linecap="round" stroke-linejoin="round"/>
<path d="M205.165 116.665V122.335" stroke="#263238" stroke-linecap="round" stroke-linejoin="round"/>
<path d="M216.165 102.335V98" stroke="#263238" stroke-linecap="round" stroke-linejoin="round"/>
<path d="M205.835 96.665V92" stroke="#263238" stroke-linecap="round" stroke-linejoin="round"/>
<path d="M211.835 97.3351H222.165" stroke="#263238" stroke-linecap="round" stroke-linejoin="round"/>
<path d="M177.835 51.3351V55.6651H195.5" stroke="#263238" stroke-linecap="round" stroke-linejoin="round"/>
<path d="M186.5 56.665V61.665H175.5" stroke="#263238" stroke-linecap="round" stroke-linejoin="round"/>
<path d="M178.165 63.3351V67.3351H192.5" stroke="#263238" stroke-linecap="round" stroke-linejoin="round"/>
<path d="M191.165 62H199.165" stroke="#263238" stroke-linecap="round" stroke-linejoin="round"/>
<path d="M186.5 69.3351V75.0001" stroke="#263238" stroke-linecap="round" stroke-linejoin="round"/>
<path d="M197.5 55V50.665" stroke="#263238" stroke-linecap="round" stroke-linejoin="round"/>
<path d="M187.165 49.335V44.665" stroke="#263238" stroke-linecap="round" stroke-linejoin="round"/>
<path d="M193.165 50H203.5" stroke="#263238" stroke-linecap="round" stroke-linejoin="round"/>
<path d="M125.835 161V165.335H143.5" stroke="#263238" stroke-linecap="round" stroke-linejoin="round"/>
<path d="M134.5 166.335V171.335H123.5" stroke="#263238" stroke-linecap="round" stroke-linejoin="round"/>
<path d="M126.165 173V177H140.5" stroke="#263238" stroke-linecap="round" stroke-linejoin="round"/>
<path d="M139.165 171.665H147.165" stroke="#263238" stroke-linecap="round" stroke-linejoin="round"/>
<path d="M134.5 179V184.665" stroke="#263238" stroke-linecap="round" stroke-linejoin="round"/>
<path d="M145.5 164.665V160.335" stroke="#263238" stroke-linecap="round" stroke-linejoin="round"/>
<path d="M135.165 159V154.335" stroke="#263238" stroke-linecap="round" stroke-linejoin="round"/>
<path d="M141.165 159.665H151.5" stroke="#263238" stroke-linecap="round" stroke-linejoin="round"/>
<path d="M47.835 142.335V146.665H65.5" stroke="#263238" stroke-linecap="round" stroke-linejoin="round"/>
<path d="M56.5 147.665V152.665H45.5" stroke="#263238" stroke-linecap="round" stroke-linejoin="round"/>
<path d="M48.165 154.335V158.335H62.5" stroke="#263238" stroke-linecap="round" stroke-linejoin="round"/>
<path d="M61.165 153H69.165" stroke="#263238" stroke-linecap="round" stroke-linejoin="round"/>
<path d="M56.5 160.335V166" stroke="#263238" stroke-linecap="round" stroke-linejoin="round"/>
<path d="M67.5 146V141.665" stroke="#263238" stroke-linecap="round" stroke-linejoin="round"/>
<path d="M57.165 140.335V135.665" stroke="#263238" stroke-linecap="round" stroke-linejoin="round"/>
<path d="M63.165 141H73.5" stroke="#263238" stroke-linecap="round" stroke-linejoin="round"/>
<path d="M146.5 173V177.335H164.165" stroke="#263238" stroke-linecap="round" stroke-linejoin="round"/>
<path d="M155.165 178.335V183.335H144.165" stroke="#263238" stroke-linecap="round" stroke-linejoin="round"/>
<path d="M146.835 185V189H161.165" stroke="#263238" stroke-linecap="round" stroke-linejoin="round"/>
<path d="M159.835 183.665H167.835" stroke="#263238" stroke-linecap="round" stroke-linejoin="round"/>
<path d="M155.165 191V196.665" stroke="#263238" stroke-linecap="round" stroke-linejoin="round"/>
<path d="M166.165 176.665V172.335" stroke="#263238" stroke-linecap="round" stroke-linejoin="round"/>
<path d="M155.835 171V166.335" stroke="#263238" stroke-linecap="round" stroke-linejoin="round"/>
<path d="M161.835 171.665H172.165" stroke="#263238" stroke-linecap="round" stroke-linejoin="round"/>
<path d="M81.835 173V177.335H99.5" stroke="#263238" stroke-linecap="round" stroke-linejoin="round"/>
<path d="M90.5 178.335V183.335H79.5" stroke="#263238" stroke-linecap="round" stroke-linejoin="round"/>
<path d="M82.165 185V189H96.5" stroke="#263238" stroke-linecap="round" stroke-linejoin="round"/>
<path d="M95.165 183.665H103.165" stroke="#263238" stroke-linecap="round" stroke-linejoin="round"/>
<path d="M90.5 191V196.665" stroke="#263238" stroke-linecap="round" stroke-linejoin="round"/>
<path d="M101.5 176.665V172.335" stroke="#263238" stroke-linecap="round" stroke-linejoin="round"/>
<path d="M91.165 171V166.335" stroke="#263238" stroke-linecap="round" stroke-linejoin="round"/>
<path d="M97.165 171.665H107.5" stroke="#263238" stroke-linecap="round" stroke-linejoin="round"/>
<path d="M35.835 98.665V103H53.5" stroke="#263238" stroke-linecap="round" stroke-linejoin="round"/>
<path d="M44.5 104V109H33.5" stroke="#263238" stroke-linecap="round" stroke-linejoin="round"/>
<path d="M36.165 110.665V114.665H50.5" stroke="#263238" stroke-linecap="round" stroke-linejoin="round"/>
<path d="M49.165 109.335H57.165" stroke="#263238" stroke-linecap="round" stroke-linejoin="round"/>
<path d="M44.5 116.665V122.335" stroke="#263238" stroke-linecap="round" stroke-linejoin="round"/>
<path d="M55.5 102.335V98" stroke="#263238" stroke-linecap="round" stroke-linejoin="round"/>
<path d="M45.165 96.665V92" stroke="#263238" stroke-linecap="round" stroke-linejoin="round"/>
<path d="M51.165 97.3351H61.5" stroke="#263238" stroke-linecap="round" stroke-linejoin="round"/>
<path d="M64.835 59V63.335H82.5" stroke="#263238" stroke-linecap="round" stroke-linejoin="round"/>
<path d="M73.5 64.3351V69.3351H62.5" stroke="#263238" stroke-linecap="round" stroke-linejoin="round"/>
<path d="M65.165 71V75H79.5" stroke="#263238" stroke-linecap="round" stroke-linejoin="round"/>
<path d="M78.165 69.665H86.165" stroke="#263238" stroke-linecap="round" stroke-linejoin="round"/>
<path d="M73.5 77V82.665" stroke="#263238" stroke-linecap="round" stroke-linejoin="round"/>
<path d="M84.5 62.6651V58.3351" stroke="#263238" stroke-linecap="round" stroke-linejoin="round"/>
<path d="M74.165 57.0001V52.3351" stroke="#263238" stroke-linecap="round" stroke-linejoin="round"/>
<path d="M80.165 57.665H90.5" stroke="#263238" stroke-linecap="round" stroke-linejoin="round"/>
<path d="M175.5 132.335V136.665H193.165" stroke="#263238" stroke-linecap="round" stroke-linejoin="round"/>
<path d="M184.165 137.665V142.665H173.165" stroke="#263238" stroke-linecap="round" stroke-linejoin="round"/>
<path d="M175.835 144.335V148.335H190.165" stroke="#263238" stroke-linecap="round" stroke-linejoin="round"/>
<path d="M188.835 143H196.835" stroke="#263238" stroke-linecap="round" stroke-linejoin="round"/>
<path d="M184.165 150.335V156" stroke="#263238" stroke-linecap="round" stroke-linejoin="round"/>
<path d="M195.165 136V131.665" stroke="#263238" stroke-linecap="round" stroke-linejoin="round"/>
<path d="M184.835 130.335V125.665" stroke="#263238" stroke-linecap="round" stroke-linejoin="round"/>
<path d="M190.835 131H201.165" stroke="#263238" stroke-linecap="round" stroke-linejoin="round"/>
<path d="M44 200H214" stroke="#263238" stroke-linecap="round" stroke-linejoin="round"/>
<path d="M77.665 217C92.6678 217 104.83 213.194 104.83 208.5C104.83 203.806 92.6678 200 77.665 200C62.6622 200 50.5 203.806 50.5 208.5C50.5 213.194 62.6622 217 77.665 217Z" fill="#FF5722"/>
<path opacity="0.5" d="M77.665 217C92.6678 217 104.83 213.194 104.83 208.5C104.83 203.806 92.6678 200 77.665 200C62.6622 200 50.5 203.806 50.5 208.5C50.5 213.194 62.6622 217 77.665 217Z" fill="white"/>
<path d="M83.98 44.665V156.665H181.98V41H106.645L83.98 44.665Z" fill="#FF5722" stroke="#263238" stroke-miterlimit="10"/>
<path d="M170.615 113.5C170.613 112.49 170.22 111.52 169.518 110.794C168.816 110.067 167.859 109.641 166.85 109.605C166.766 109.631 166.678 109.645 166.59 109.645C166.495 109.644 166.4 109.627 166.31 109.595H166.24C166.088 109.528 165.959 109.419 165.868 109.28C165.778 109.141 165.73 108.978 165.73 108.813C165.73 108.647 165.778 108.484 165.868 108.345C165.959 108.206 166.088 108.097 166.24 108.03H166.28C166.379 107.992 166.484 107.972 166.59 107.97C166.678 107.972 166.766 107.987 166.85 108.015C167.863 107.941 168.81 107.488 169.504 106.747C170.198 106.006 170.588 105.03 170.595 104.015V103C170.595 102.469 170.49 101.943 170.287 101.453C170.084 100.962 169.786 100.517 169.41 100.142C169.034 99.7664 168.588 99.4689 168.098 99.2661C167.607 99.0634 167.081 98.9594 166.55 98.9601C166.334 98.9435 166.132 98.846 165.985 98.687C165.837 98.528 165.756 98.3193 165.756 98.1026C165.756 97.8858 165.837 97.6771 165.985 97.5181C166.132 97.3591 166.334 97.2616 166.55 97.2451H166.6C167.585 97.2332 168.526 96.8334 169.219 96.1324C169.912 95.4313 170.3 94.4855 170.3 93.5001V91.7801C170.3 90.7855 169.905 89.8317 169.202 89.1284C168.498 88.4251 167.545 88.0301 166.55 88.0301H143.275C143.543 86.0863 143.909 84.1572 144.37 82.2501C144.995 79.9101 147.805 76.4701 148.275 72.2501C148.745 68.0301 145.62 59.9051 141.87 59.1251C138.12 58.3451 137.34 61.3101 137.495 65.5301C137.65 69.7501 131.87 77.2451 127.965 81.1551C124.06 85.0651 119.26 91.3901 119.26 91.3901L119.53 121.305L124.37 123.645C129.215 125.99 134.84 126.145 134.84 126.145H164C164.829 126.145 165.624 125.816 166.21 125.23C166.796 124.644 167.125 123.849 167.125 123.02V122.24C167.125 120.515 166.53 119.555 165.3 119.115C165.09 119.092 164.897 118.993 164.756 118.836C164.615 118.679 164.537 118.476 164.537 118.265C164.537 118.054 164.615 117.851 164.756 117.694C164.897 117.537 165.09 117.438 165.3 117.415H166.71C167.224 117.415 167.732 117.314 168.207 117.117C168.681 116.92 169.112 116.631 169.475 116.268C169.838 115.904 170.125 115.472 170.321 114.998C170.516 114.523 170.616 114.014 170.615 113.5Z" fill="white" stroke="#263238" stroke-width="5" stroke-linecap="round" stroke-linejoin="round"/>
<path d="M116.94 87.66H102.115C100.342 87.66 98.905 89.0972 98.905 90.87V124.29C98.905 126.063 100.342 127.5 102.115 127.5H116.94C118.713 127.5 120.15 126.063 120.15 124.29V90.87C120.15 89.0972 118.713 87.66 116.94 87.66Z" fill="#263238"/>
<path d="M100.5 96L95.165 80.165C94.9363 79.2895 94.7692 78.3989 94.665 77.5C94.665 76.835 97.32 73 97.32 73C97.32 73 96.7 71.21 97.71 70.9C98.72 70.59 101.055 72.845 101.29 73.235C101.525 73.625 101.445 74.4 101.135 75.1C100.825 75.8 98.72 80.16 98.41 80.39C98.1 80.62 102.065 87.315 104.71 91.05C107.355 94.785 109.71 98.205 109.145 99.685C108.58 101.165 106.115 99.995 104.245 99.14C102.862 98.4062 101.602 97.4616 100.51 96.34L100.5 96Z" fill="white" stroke="#263238" stroke-linecap="round" stroke-linejoin="round"/>
<path d="M98.155 72.6951L99.23 73.5001" stroke="#263238" stroke-linecap="round" stroke-linejoin="round"/>
<path d="M60.1751 131.435C60.1751 131.435 61.1751 134.435 63.9801 135.115C66.7851 135.795 74.3151 126.5 74.3151 126.5L74.6451 123.665L63.3151 125C63.3151 125 59.6751 127.1 60.1751 131.435Z" fill="white" stroke="#263238" stroke-linecap="round" stroke-linejoin="round"/>
<path d="M102.645 42.335C102.645 42.335 100.315 47.5 100.315 48C100.315 48.5 100.375 48.79 101.36 49C102.345 49.21 111.575 50.97 113.315 50.5C114.585 50.175 115.645 43.835 115.645 43.835C114.608 43.5719 113.548 43.4046 112.48 43.335C111.315 43.335 108.145 43 108.145 43L106.815 44.165L107.315 42.665L105.315 42.335L104.815 43.5L104.5 42.165L102.645 42.335Z" fill="white" stroke="#263238" stroke-miterlimit="10"/>
<path d="M113.315 50.5001C113.815 50.3701 114.315 49.2351 114.705 47.9351L100.915 46.3151C100.663 46.8569 100.462 47.421 100.315 48.0001C100.315 48.5001 100.375 48.7901 101.36 49.0001C102.345 49.2101 111.575 50.9451 113.315 50.5001Z" fill="#263238" stroke="#263238" stroke-miterlimit="10"/>
<path d="M62.7701 155.21C62.6465 155.209 62.525 155.177 62.4164 155.118C62.3078 155.059 62.2153 154.974 62.1472 154.871C62.079 154.768 62.0373 154.65 62.0256 154.526C62.0139 154.403 62.0326 154.279 62.0801 154.165L106.58 48.6651C106.658 48.4814 106.805 48.3361 106.99 48.2611C107.175 48.186 107.381 48.1875 107.565 48.265C107.749 48.3426 107.894 48.49 107.969 48.6747C108.044 48.8594 108.043 49.0664 107.965 49.25L63.4651 154.75C63.4067 154.886 63.3098 155.002 63.1863 155.084C63.0629 155.166 62.9182 155.209 62.7701 155.21Z" fill="#263238" stroke="#263238" stroke-miterlimit="10"/>
<path d="M95.605 81.5001C95.605 81.5001 94.605 79.1251 95.045 75.3401C95.175 74.2151 96.37 72.6951 96.445 72.1501C96.52 71.6051 96.055 70.9851 96.755 70.9851C97.455 70.9851 98.155 71.9151 98.155 72.6951C98.155 73.4751 97.615 74.6951 97.69 75.0301C97.714 75.523 97.6888 76.0171 97.615 76.5051" fill="white"/>
<path d="M95.605 81.5001C95.605 81.5001 94.605 79.1251 95.045 75.3401C95.175 74.2151 96.37 72.6951 96.445 72.1501C96.52 71.6051 96.055 70.9851 96.755 70.9851C97.455 70.9851 98.155 71.9151 98.155 72.6951C98.155 73.4751 97.615 74.6951 97.69 75.0301C97.714 75.523 97.6888 76.0171 97.615 76.5051" stroke="#263238" stroke-linecap="round" stroke-linejoin="round"/>
<path d="M83.7551 79.605C83.7551 79.605 86.0051 82.035 86.2551 82.665C86.5051 83.295 86.4351 84.665 86.4351 84.915C86.4351 85.165 87.1552 85.545 87.3352 86.085C87.5152 86.625 88.7752 90.31 88.7752 90.85C88.7752 91.39 87.9652 92.11 87.1552 92.47L85.3552 93.28L85.0851 96.16L78.0851 97.24L77.2751 94.18C77.2751 94.18 79.5251 93.55 79.7751 91.57C80.0251 89.59 76.9851 86.805 77.7051 83.655C78.4251 80.505 81.6851 78.885 83.7551 79.605Z" fill="white" stroke="#263238" stroke-linecap="round" stroke-linejoin="round"/>
<path d="M83.2151 79.785C82.9087 80.6289 82.6974 81.5043 82.5851 82.395C82.5851 83.205 84.4751 83.025 84.4751 84.015C84.3892 84.8344 84.1447 85.6291 83.7551 86.355C83.7551 86.355 84.7551 87.355 84.5651 87.855C84.3751 88.355 83.5651 88.935 83.3051 88.305C83.0451 87.675 81.8651 87.945 82.3051 89.205C82.6083 90.007 83.0671 90.7411 83.6551 91.365C83.2965 92.3565 82.7109 93.2503 81.9451 93.975C80.5951 95.325 78.5251 95.775 77.9851 95.415C77.4451 95.055 74.4851 92.715 72.9501 90.555C71.4151 88.395 70.0702 85.055 71.4201 81.65C71.8796 80.5139 72.6123 79.5087 73.5535 78.7237C74.4946 77.9387 75.615 77.3981 76.8152 77.15C77.7151 76.97 75.2851 76.7 76.1851 75.44C77.0851 74.18 79.6051 73.28 81.0451 74C82.4851 74.72 82.0451 75.62 82.8451 75.89C83.6451 76.16 84.4651 74.81 85.2751 75.98C86.0851 77.15 87.0001 80.865 83.2151 79.785Z" fill="#263238" stroke="#263238" stroke-linecap="round" stroke-linejoin="round"/>
<path d="M82.5852 82.395C82.5852 82.395 82.2502 86.315 80.1352 88.7C78.0202 91.085 74.3052 91.615 74.3052 91.615" stroke="white" stroke-linecap="round" stroke-linejoin="round"/>
<path d="M77.2751 94.18C77.2751 94.18 79.3401 94.26 81.7202 92.14" stroke="white" stroke-linecap="round" stroke-linejoin="round"/>
<path d="M84.295 89.0501C84.295 89.0501 82.945 86.8951 82.225 87.7001C81.505 88.5051 82.405 90.9401 83.665 91.3901C84.925 91.8401 85.375 91.0301 85.375 91.0301" fill="white"/>
<path d="M84.295 89.0501C84.295 89.0501 82.945 86.8951 82.225 87.7001C81.505 88.5051 82.405 90.9401 83.665 91.3901C84.925 91.8401 85.375 91.0301 85.375 91.0301" stroke="#263238" stroke-linecap="round" stroke-linejoin="round"/>
<path d="M74.22 99.1301C74.22 99.1301 74.665 97.1301 75.565 96.5201C76.465 95.9101 83.125 95.1701 84.925 94.9901C86.725 94.8101 88.615 95.8901 88.615 95.8901L89.515 97.4201L74.22 99.1301Z" fill="white" stroke="#263238" stroke-linecap="round" stroke-linejoin="round"/>
<path d="M61.0001 124.335C61.0001 124.335 59.1651 126.335 58.8351 127.335C58.5051 128.335 58.3351 130.5 60.1651 131.835C61.9951 133.17 64.8351 133.5 66.1651 132.835C67.4951 132.17 68.3351 130.835 68.3351 128.665C68.3637 127.464 68.1353 126.271 67.6651 125.165C67.6651 125.165 63.3151 122.5 61.0001 124.335Z" fill="white" stroke="#263238" stroke-linecap="round" stroke-linejoin="round"/>
<path d="M98.3152 97.335C98.3152 97.335 99.6452 95 102.145 94.835C104.645 94.67 105.98 95 107.815 96.665C109.65 98.33 111 100.835 110 102.5C109 104.165 108 105 106 105.165C104 105.33 102 103 102 103L98.3152 97.335Z" fill="white" stroke="#263238" stroke-linecap="round" stroke-linejoin="round"/>
<path d="M86.145 202.165C86.145 202.165 91.48 201.835 92.48 203.165C93.48 204.495 92.895 206.465 89.32 208.45C86.2 210.185 79.075 211.95 76.68 211.45C73.88 210.91 75.48 205.815 75.48 205.815C75.48 205.815 83.145 206.165 86.145 202.165Z" fill="white" stroke="#263238" stroke-linecap="round" stroke-linejoin="round"/>
<path d="M92.42 203.1C91.9991 204.451 91.23 205.666 90.19 206.625C87.965 208.625 82.8 209.88 79.54 210.36C78.0627 210.602 76.5474 210.44 75.155 209.89C75.2151 210.279 75.3939 210.639 75.667 210.922C75.94 211.205 76.2939 211.396 76.68 211.47C79.075 211.935 86.18 210.185 89.32 208.47C92.895 206.47 93.48 204.52 92.48 203.185L92.42 203.1Z" fill="#263238" stroke="#263238" stroke-linecap="round" stroke-linejoin="round"/>
<path d="M60.645 203.665C60.645 203.665 59.98 206.665 60.815 208C61.65 209.335 66.145 210 67.815 209.165C69.485 208.33 69.98 206.165 69.98 204.165C69.98 202.165 67.145 206.335 60.645 203.665Z" fill="white" stroke="#263238" stroke-linecap="round" stroke-linejoin="round"/>
<path d="M60.4202 206.59C60.4416 207.084 60.5768 207.567 60.8152 208C61.6452 209.335 66.1452 210 67.8152 209.165C68.5074 208.799 69.0527 208.205 69.3602 207.485C64.5002 209.195 61.5902 207.55 60.4202 206.59Z" fill="#263238" stroke="#263238" stroke-linecap="round" stroke-linejoin="round"/>
<path d="M70.1451 132.835C70.1451 132.835 68.9801 139 69.1451 140.165C69.3101 141.33 69.8151 144.165 69.8151 144.165C69.8151 144.165 65.8151 168 65.4801 173.835C65.1451 179.67 62.8151 190 62.1451 193.835C61.4751 197.67 61.1451 201.335 60.1451 202.835C59.1451 204.335 61.4801 205.5 62.6451 206.165C63.8101 206.83 68.4801 206 69.1451 205.665C69.8101 205.33 70.3151 203.335 70.4801 201.835C70.6451 200.335 74.3151 191 75.0001 185C75.6851 179 79.8351 157 80.1651 155.335C80.4951 153.67 81.3351 148.835 81.3351 148.835C81.3351 148.835 80.1651 169 80.0001 174.335C79.8351 179.67 77.0001 186.5 76.5001 191.165C76.0001 195.83 75.3351 200 75.3351 201.835C75.3351 203.67 74.8351 207 75.8351 207.665C76.8351 208.33 78.6651 207.835 81.5001 207C84.3351 206.165 86.1651 204.335 86.3351 203C86.5051 201.665 86.8351 201 86.8351 200.165C86.8351 199.33 90.0001 181.835 92.0001 172.665C94.0001 163.495 95.3351 151.335 94.1651 144.335C93.4679 140.203 93.0785 136.025 93.0001 131.835C93.0001 131.835 77.6451 136 70.1451 132.835Z" fill="#263238" stroke="#263238" stroke-linecap="round" stroke-linejoin="round"/>
<path d="M81.315 148.835L76.48 145.665" stroke="white" stroke-linecap="round" stroke-linejoin="round"/>
<path d="M75.0002 98.665C75.0002 98.665 64.3352 101.665 64.0002 104.5C63.6652 107.335 61.5002 118.835 61.0002 122.165C60.5002 125.495 59.1652 128.335 61.3352 130C63.5052 131.665 66.5002 130.5 67.1652 129.165C67.8302 127.83 69.1652 124.665 69.1652 124.665C69.1652 124.665 69.5002 131.165 69.5002 132.165C69.5002 133.165 69.6652 134.665 73.0002 135C76.3352 135.335 83.0002 135.665 86.1652 134.835C89.3302 134.005 92.6652 133.835 93.0002 131.835C93.3352 129.835 92.3352 123.165 93.0002 119.335C93.6652 115.505 94.1652 109.335 94.1652 109.335C94.1652 109.335 106 104.5 107.835 103.835C109.67 103.17 107.665 98.5 105.665 97.335C103.665 96.17 101.5 96.165 98.8352 96.665C96.1702 97.165 92.8352 96.5 91.1652 96.5C89.4952 96.5 75.0002 98.665 75.0002 98.665Z" fill="white" stroke="#263238" stroke-linecap="round" stroke-linejoin="round"/>
<path d="M95.145 101.165L94.145 109.335L97.315 102.165" stroke="#263238" stroke-linecap="round" stroke-linejoin="round"/>
<path d="M69.145 124.665L67.645 109.835" stroke="#263238" stroke-linecap="round" stroke-linejoin="round"/>
<path d="M67.815 114L65.145 107.665" stroke="#263238" stroke-linecap="round" stroke-linejoin="round"/>
<path d="M92.5 118.165C92.5 118.165 90.165 126.335 85 129.5" stroke="#263238" stroke-linecap="round" stroke-linejoin="round"/>
<path d="M87.5 125.5C87.5 125.5 85.165 128 80.165 130.5" stroke="#263238" stroke-linecap="round" stroke-linejoin="round"/>
<path d="M84 44.665L86 54.335C86 54.335 96 47.335 108 43.665C120 39.995 131.88 40.96 131.88 40.96C131.88 40.96 109 38 99 40.335C89 42.67 84 44.665 84 44.665Z" fill="white" stroke="#263238" stroke-miterlimit="10"/>
<path d="M169.62 132.85C169.552 132.606 169.536 132.351 169.574 132.1C169.611 131.85 169.701 131.61 169.837 131.397C169.974 131.184 170.153 131.002 170.365 130.863C170.576 130.723 170.815 130.631 171.065 130.59C172.565 130.385 174.435 132.415 175.025 133.645C175.075 133.75 175.675 135.5 175.65 135.5C175.625 135.5 172.97 135.56 171.875 135.085C170.945 134.675 169.87 133.9 169.62 132.85ZM208.455 128.195C208.235 129.245 207.18 130.055 206.26 130.485C205.34 130.915 203.16 130.985 202.625 130.985C202.33 131.33 202.025 131.7 201.695 132.115C201.115 132.855 200.475 133.7 199.835 134.66C199.665 134.915 199.49 135.195 199.335 135.465C199.72 135.07 200.255 134.535 200.335 134.465C201.4 133.615 203.955 132.605 205.23 133.465C205.437 133.611 205.61 133.8 205.74 134.018C205.869 134.236 205.951 134.478 205.981 134.73C206.011 134.982 205.987 135.237 205.912 135.479C205.837 135.721 205.712 135.944 205.545 136.135C204.86 136.965 203.545 137.2 202.545 137.135C201.545 137.07 199.495 136.135 199.045 135.91C198.67 136.515 198.3 137.145 197.955 137.825C197.307 139.049 196.772 140.329 196.355 141.65L196.43 141.69C196.74 141.28 197.43 140.44 197.48 140.38C198.445 139.415 200.875 138.13 202.23 138.825C202.452 138.947 202.647 139.115 202.8 139.317C202.954 139.519 203.063 139.751 203.12 139.999C203.178 140.246 203.183 140.503 203.134 140.752C203.086 141.001 202.986 141.237 202.84 141.445C202.25 142.345 200.975 142.72 199.96 142.79C198.795 142.875 196.375 141.96 196.285 141.925C195.903 143.247 195.609 144.594 195.405 145.955C195.245 146.955 195.13 147.985 195.02 149.015C195.23 148.725 196.115 147.62 196.185 147.545C197.15 146.585 199.58 145.295 200.94 145.995C201.161 146.118 201.355 146.286 201.507 146.489C201.66 146.691 201.768 146.923 201.825 147.17C201.882 147.417 201.887 147.674 201.838 147.922C201.79 148.171 201.69 148.407 201.545 148.615C200.955 149.515 199.685 149.89 198.67 149.96C197.525 150.04 195.205 149.175 195.01 149.1C194.96 149.57 194.91 150.035 194.865 150.505C194.715 152.04 194.57 153.575 194.365 155.09C194.3 155.59 194.215 156.125 194.135 156.64C194.465 156.215 195.08 155.445 195.135 155.385C196.1 154.425 198.53 153.135 199.885 153.835C200.115 153.955 200.317 154.124 200.476 154.33C200.635 154.535 200.747 154.773 200.806 155.026C200.864 155.279 200.867 155.542 200.814 155.796C200.761 156.051 200.654 156.291 200.5 156.5C199.91 157.405 198.64 157.775 197.625 157.85C196.61 157.925 194.625 157.235 194.085 157.035C193.945 157.89 193.785 158.735 193.585 159.565C193.49 159.915 193.42 160.285 193.31 160.62L193.01 161.62C192.78 162.3 192.565 162.935 192.335 163.565C192.22 163.885 192.105 164.18 191.99 164.49C192.26 163.99 192.7 163.245 192.75 163.18C193.555 162.085 195.75 160.445 197.21 160.93C197.449 161.017 197.667 161.153 197.849 161.33C198.032 161.507 198.175 161.72 198.269 161.956C198.364 162.192 198.407 162.445 198.397 162.699C198.387 162.953 198.323 163.202 198.21 163.43C197.765 164.43 196.565 164.97 195.57 165.195C194.48 165.445 192.13 164.965 191.845 164.905C191.56 165.66 191.275 166.405 190.995 167.07C190.115 169.22 189.3 170.975 188.715 172.2C188.68 172.265 188.65 172.33 188.62 172.395H192.895L191.42 201.195C191.366 202.249 190.909 203.241 190.145 203.968C189.38 204.695 188.365 205.1 187.31 205.1C186.254 205.1 185.239 204.695 184.473 203.969C183.707 203.242 183.25 202.249 183.195 201.195L181.72 172.395H186.31C186.31 172.195 186.265 171.985 186.24 171.745C186.085 170.415 185.84 168.515 185.44 166.245C185.325 165.59 185.195 164.9 185.055 164.19C184.755 164.23 182.385 164.53 181.315 164.19C180.34 163.89 179.185 163.24 178.815 162.23C178.72 161.995 178.676 161.743 178.685 161.489C178.694 161.236 178.757 160.988 178.868 160.76C178.979 160.532 179.137 160.331 179.331 160.168C179.525 160.005 179.751 159.885 179.995 159.815C181.47 159.44 183.55 161.24 184.275 162.395C184.32 162.47 184.775 163.395 184.99 163.895C184.905 163.465 184.82 163.04 184.72 162.595C184.585 161.96 184.42 161.285 184.26 160.635C184.17 160.3 184.075 159.96 183.98 159.635C183.885 159.31 183.765 158.97 183.655 158.635C183.485 158.135 183.29 157.635 183.09 157.135C182.45 157.315 180.555 157.805 179.59 157.66C178.625 157.515 177.34 157.05 176.82 156.105C176.691 155.887 176.609 155.644 176.58 155.393C176.551 155.141 176.574 154.886 176.65 154.645C176.725 154.403 176.851 154.18 177.018 153.989C177.185 153.799 177.39 153.646 177.62 153.54C179.025 152.945 181.35 154.41 182.245 155.44C182.27 155.475 182.44 155.71 182.63 155.995C182.425 155.495 182.22 155.03 181.995 154.55C181.35 153.18 180.655 151.81 179.965 150.435C179.82 150.145 179.68 149.855 179.535 149.57C178.995 149.72 176.945 150.27 175.925 150.125C174.905 149.98 173.675 149.51 173.16 148.565C173.03 148.348 172.947 148.105 172.917 147.854C172.887 147.602 172.91 147.347 172.985 147.105C173.06 146.863 173.186 146.64 173.353 146.449C173.52 146.259 173.725 146.106 173.955 146C175.36 145.405 177.69 146.87 178.58 147.9C178.61 147.94 178.81 148.22 179.025 148.54C178.66 147.79 178.305 147.04 177.98 146.27C177.405 144.972 176.921 143.635 176.53 142.27C176.34 142.325 173.95 143.02 172.815 142.855C171.815 142.705 170.565 142.24 170.05 141.295C169.919 141.078 169.836 140.835 169.806 140.584C169.776 140.332 169.8 140.077 169.875 139.835C169.951 139.594 170.077 139.371 170.245 139.181C170.413 138.991 170.619 138.839 170.85 138.735C172.25 138.135 174.58 139.605 175.47 140.635C175.535 140.705 176.24 141.74 176.47 142.135V142.085C176.116 140.733 175.883 139.353 175.775 137.96C175.672 136.716 175.642 135.467 175.685 134.22C175.715 133.06 175.81 132.005 175.905 131.07C175.96 130.57 176.015 130.1 176.075 129.67H176.05C176.025 129.67 175.515 127.905 175.495 127.785C175.27 126.445 175.625 123.715 176.995 123.015C177.222 122.902 177.471 122.838 177.725 122.828C177.979 122.817 178.233 122.861 178.469 122.955C178.705 123.05 178.918 123.193 179.095 123.376C179.272 123.558 179.408 123.776 179.495 124.015C179.895 125.015 179.46 126.27 178.93 127.14C178.4 128.01 176.625 129.275 176.18 129.58C176.13 130.025 176.075 130.505 176.03 131.04C175.96 131.975 175.885 133.04 175.885 134.185C175.885 134.49 175.885 134.82 175.885 135.14C175.99 134.6 176.14 133.855 176.165 133.785C176.585 132.49 178.165 130.235 179.665 130.235C179.918 130.244 180.166 130.306 180.394 130.416C180.622 130.527 180.824 130.684 180.988 130.878C181.151 131.072 181.272 131.297 181.343 131.54C181.414 131.784 181.433 132.039 181.4 132.29C181.285 133.36 180.325 134.29 179.455 134.79C178.585 135.29 176.355 135.63 175.875 135.69C175.875 136.4 175.935 137.13 176.02 137.885C176.156 139.264 176.415 140.627 176.795 141.96H176.88C176.915 141.46 177.015 140.375 177.03 140.285C177.305 138.955 178.625 136.535 180.14 136.37C180.392 136.35 180.646 136.384 180.885 136.469C181.124 136.553 181.342 136.687 181.526 136.861C181.71 137.036 181.855 137.247 181.952 137.481C182.049 137.715 182.096 137.967 182.09 138.22C182.09 139.295 181.24 140.31 180.435 140.93C179.505 141.645 176.98 142.215 176.89 142.24C177.307 143.553 177.808 144.837 178.39 146.085C178.815 147.01 179.285 147.93 179.76 148.85C179.76 148.49 179.905 147.08 179.925 146.98C180.2 145.645 181.515 143.23 183.03 143.065C183.283 143.045 183.537 143.078 183.776 143.162C184.015 143.246 184.234 143.38 184.418 143.555C184.602 143.729 184.747 143.941 184.844 144.175C184.941 144.409 184.987 144.661 184.98 144.915C184.98 145.99 184.13 147.005 183.325 147.62C182.415 148.32 180.005 148.88 179.825 148.925C180.04 149.345 180.255 149.76 180.48 150.175C181.2 151.54 181.93 152.9 182.605 154.265C182.84 154.735 183.055 155.21 183.27 155.685C183.31 155.145 183.4 154.185 183.415 154.085C183.69 152.75 185.01 150.335 186.525 150.17C186.777 150.15 187.031 150.182 187.27 150.267C187.509 150.351 187.727 150.484 187.911 150.658C188.095 150.832 188.24 151.043 188.337 151.276C188.434 151.51 188.481 151.762 188.475 152.015C188.475 153.095 187.625 154.105 186.82 154.725C186.015 155.345 183.99 155.865 183.42 156C183.775 156.79 184.105 157.585 184.42 158.385C184.535 158.73 184.68 159.075 184.775 159.415C184.87 159.755 184.98 160.09 185.08 160.415C185.265 161.115 185.435 161.76 185.58 162.415C185.66 162.745 185.73 163.06 185.805 163.38C185.765 162.825 185.71 161.95 185.715 161.88C185.785 160.52 186.715 157.935 188.215 157.54C188.461 157.482 188.717 157.476 188.966 157.523C189.214 157.571 189.45 157.67 189.658 157.814C189.866 157.958 190.041 158.145 190.173 158.361C190.304 158.577 190.388 158.819 190.42 159.07C190.441 159.202 190.449 159.336 190.445 159.47C191.045 160.507 191.369 161.682 191.385 162.88C191.385 162.97 191.245 163.995 191.16 164.52C191.325 164.115 191.485 163.71 191.66 163.285C191.9 162.68 192.13 162.025 192.36 161.395C192.47 161.065 192.575 160.73 192.685 160.395C192.795 160.06 192.87 159.72 192.97 159.395C193.1 158.895 193.21 158.365 193.325 157.84C192.69 157.635 190.825 156.995 190.1 156.34C189.375 155.685 188.565 154.59 188.65 153.515C188.663 153.262 188.729 153.015 188.844 152.789C188.958 152.563 189.119 152.364 189.316 152.204C189.512 152.044 189.74 151.928 189.984 151.861C190.229 151.795 190.485 151.781 190.735 151.82C192.235 152.095 193.365 154.605 193.54 155.955C193.54 155.995 193.54 156.285 193.54 156.63C193.635 156.13 193.73 155.6 193.805 155.07C194.025 153.57 194.2 152.07 194.38 150.52C194.42 150.2 194.465 149.88 194.5 149.56C193.965 149.39 191.955 148.72 191.185 148.03C190.415 147.34 189.65 146.28 189.735 145.205C189.747 144.952 189.813 144.704 189.927 144.478C190.042 144.252 190.202 144.052 190.399 143.892C190.596 143.732 190.824 143.616 191.069 143.55C191.314 143.484 191.569 143.47 191.82 143.51C193.32 143.785 194.45 146.295 194.625 147.645C194.625 147.695 194.625 148.04 194.625 148.425C194.735 147.595 194.86 146.77 195.005 145.95C195.245 144.549 195.58 143.166 196.005 141.81C195.82 141.75 193.44 141.01 192.585 140.245C191.83 139.57 191.05 138.495 191.14 137.42C191.151 137.167 191.216 136.919 191.33 136.693C191.444 136.467 191.605 136.267 191.801 136.107C191.997 135.947 192.225 135.831 192.47 135.765C192.714 135.699 192.97 135.685 193.22 135.725C194.72 136 195.85 138.505 196.025 139.86C196.025 139.955 196.06 141.205 196.05 141.65V141.6C196.501 140.277 197.07 138.997 197.75 137.775C198.352 136.681 199.02 135.624 199.75 134.61C200.41 133.66 201.075 132.83 201.665 132.11C201.99 131.72 202.295 131.365 202.58 131.04H202.5C202.47 131.04 203.025 129.27 203.075 129.165C203.63 127.92 205.43 125.84 206.95 126.005C207.197 126.04 207.434 126.126 207.647 126.258C207.859 126.39 208.042 126.564 208.183 126.77C208.324 126.976 208.422 127.208 208.468 127.454C208.515 127.699 208.511 127.952 208.455 128.195ZM190.955 164.79C190.695 164.665 188.695 163.675 187.915 162.83C187.24 163.204 186.544 163.538 185.83 163.83C186.005 164.615 186.17 165.385 186.33 166.105C186.78 168.38 187.07 170.295 187.255 171.64C187.295 171.925 187.33 172.18 187.36 172.415H187.46C187.565 172.22 187.67 172.005 187.795 171.765C188.4 170.57 189.245 168.845 190.16 166.735C190.42 166.11 190.695 165.46 190.965 164.79H190.955ZM198.955 135.675C198.955 135.675 199.455 133.895 199.455 133.775C199.645 132.43 199.215 129.71 197.84 129.045C197.609 128.941 197.358 128.888 197.105 128.887C196.851 128.887 196.601 128.94 196.369 129.042C196.138 129.145 195.93 129.296 195.761 129.484C195.591 129.672 195.463 129.894 195.385 130.135C195.015 131.135 195.48 132.39 196.035 133.24C196.69 134.245 198.955 135.67 198.955 135.675Z" fill="#263238"/>
</svg>
