<svg width="24" height="24" viewBox="0 0 24 24" fill="none" xmlns="http://www.w3.org/2000/svg">
<path d="M12 20L4.99998 13C4.60601 12.5732 4.29997 12.073 4.09932 11.5279C3.89867 10.9829 3.80735 10.4036 3.83056 9.82324C3.87744 8.65113 4.38802 7.54566 5.24998 6.75001C6.11193 5.95436 7.25465 5.53371 8.42675 5.58059C9.59886 5.62748 10.7043 6.13806 11.5 7.00001C11.648 7.0989 11.822 7.15168 12 7.15168C12.178 7.15168 12.352 7.0989 12.5 7.00001C13.2956 6.13806 14.4011 5.62748 15.5732 5.58059C16.7453 5.53371 17.888 5.95436 18.75 6.75001C19.6119 7.54566 20.1225 8.65113 20.1694 9.82324C20.2163 10.9953 19.7956 12.1381 19 13L12 20Z" stroke="white" stroke-width="1.5" stroke-linecap="round" stroke-linejoin="round"/>
</svg>
