<svg width="24" height="24" viewBox="0 0 24 24" fill="none" xmlns="http://www.w3.org/2000/svg">
<path d="M13.0586 2.44686C14.643 2.59686 16.4898 3.32811 17.7742 4.29373L18.3836 4.76248L19.1617 3.97498C19.593 3.54373 19.9773 3.18748 20.0148 3.18748C20.0617 3.18748 20.0898 4.28436 20.0898 5.62498V8.06248H17.6523C16.3117 8.06248 15.2148 8.03436 15.2148 7.98748C15.2148 7.94998 15.6555 7.48123 16.1898 6.94686L17.1742 5.97186L16.7805 5.65311C16.2273 5.20311 14.8305 4.53748 13.9492 4.30311C12.8992 4.02186 11.1648 4.02186 10.1055 4.30311C7.05859 5.11873 4.78047 7.53748 4.20859 10.5844C3.55234 14.025 5.32422 17.5406 8.53047 19.1531C8.79297 19.2937 9.38359 19.5187 9.84297 19.6594C10.5836 19.8844 10.8086 19.9125 12.0273 19.9125C13.2367 19.9031 13.4805 19.875 14.2305 19.65C15.5805 19.2375 16.5836 18.6375 17.6336 17.5969C19.0023 16.2562 19.7805 14.5031 19.9586 12.4125C20.0242 11.625 20.0992 11.4469 20.4367 11.2687C20.7836 11.0812 21.1211 11.1375 21.4211 11.4375C21.4211 11.4375 21.543 11.625 21.5898 11.8594C21.6367 12.0937 21.6367 12.5437 21.6367 12.5437C21.5148 14.1281 21.168 15.3656 20.493 16.5937C17.9805 21.2062 12.2711 22.9687 7.60234 20.5594C2.92422 18.15 1.05859 12.45 3.40234 7.73436C5.19297 4.11561 8.98047 2.04373 13.0586 2.44686Z" fill="black"/>
<path d="M13.2646 9.27197C12.3552 9.68447 11.8677 10.6595 11.8771 12.0938C11.8771 13.9782 12.7302 15.0376 14.249 15.0376C15.7771 15.0376 16.6208 13.9782 16.6208 12.047C16.6208 11.0157 16.424 10.3407 15.9458 9.81572C15.4865 9.3001 14.999 9.09385 14.249 9.09385C13.8552 9.09385 13.5083 9.15947 13.2646 9.27197ZM14.6708 10.4438C14.9615 10.7345 15.0927 11.2407 15.0927 12.0938C15.0833 13.1907 14.7646 13.8751 14.249 13.8751C13.7333 13.8751 13.4146 13.1907 13.4052 12.0938C13.4052 11.7095 13.4521 11.2313 13.5083 11.0251C13.6302 10.5938 13.9771 10.2188 14.249 10.2188C14.3615 10.2188 14.549 10.322 14.6708 10.4438Z" fill="black"/>
<path d="M8.23125 9.7125L7.5 10.2281V10.8937V11.55L7.7625 11.3906C7.90313 11.2969 8.23125 11.0812 8.48438 10.9031L8.95313 10.5937L8.98125 12.75L9 14.9062H9.75H10.5V12.0469V9.1875H9.73125L8.95313 9.19687L8.23125 9.7125Z" fill="black"/>
</svg>
