<svg width="40" height="40" viewBox="0 0 40 40" fill="none" xmlns="http://www.w3.org/2000/svg">
<path d="M15 8.33325H11.6667C10.7462 8.33325 10 9.07944 10 9.99992V29.9999C10 30.9204 10.7462 31.6666 11.6667 31.6666H15C15.9205 31.6666 16.6667 30.9204 16.6667 29.9999V9.99992C16.6667 9.07944 15.9205 8.33325 15 8.33325Z" stroke="white" stroke-width="2.5" stroke-linecap="round" stroke-linejoin="round"/>
<path d="M28.3333 8.33325H24.9999C24.0794 8.33325 23.3333 9.07944 23.3333 9.99992V29.9999C23.3333 30.9204 24.0794 31.6666 24.9999 31.6666H28.3333C29.2537 31.6666 29.9999 30.9204 29.9999 29.9999V9.99992C29.9999 9.07944 29.2537 8.33325 28.3333 8.33325Z" stroke="white" stroke-width="2.5" stroke-linecap="round" stroke-linejoin="round"/>
</svg>
