<svg width="24" height="24" viewBox="0 0 24 24" fill="none" xmlns="http://www.w3.org/2000/svg">
<path d="M10.9688 2.44686C9.38438 2.59686 7.5375 3.32811 6.25313 4.29373L5.64375 4.76248L4.86562 3.97498C4.43437 3.54373 4.05 3.18748 4.0125 3.18748C3.96562 3.18748 3.9375 4.28436 3.9375 5.62498V8.06248H6.375C7.71563 8.06248 8.8125 8.03436 8.8125 7.98748C8.8125 7.94998 8.37187 7.48123 7.8375 6.94686L6.85312 5.97186L7.24687 5.65311C7.8 5.20311 9.19688 4.53748 10.0781 4.30311C11.1281 4.02186 12.8625 4.02186 13.9219 4.30311C16.9688 5.11873 19.2469 7.53748 19.8188 10.5844C20.475 14.025 18.7031 17.5406 15.4969 19.1531C15.2344 19.2937 14.6438 19.5187 14.1844 19.6594C13.4438 19.8844 13.2188 19.9125 12 19.9125C10.7906 19.9031 10.5469 19.875 9.79688 19.65C8.44688 19.2375 7.44375 18.6375 6.39375 17.5969C5.025 16.2562 4.24687 14.5031 4.06875 12.4125C4.00312 11.625 3.92813 11.4469 3.59063 11.2687C3.24375 11.0812 2.90625 11.1375 2.60625 11.4375C2.60625 11.4375 2.48438 11.625 2.4375 11.8594C2.39062 12.0937 2.39062 12.5437 2.39062 12.5437C2.5125 14.1281 2.85938 15.3656 3.53438 16.5937C6.04688 21.2062 11.7563 22.9687 16.425 20.5594C21.1031 18.15 22.9688 12.45 20.625 7.73436C18.8344 4.11561 15.0469 2.04373 10.9688 2.44686Z" fill="black"/>
<path d="M13.1708 9.27197C12.2615 9.68447 11.774 10.6595 11.7833 12.0938C11.7833 13.9782 12.6365 15.0376 14.1552 15.0376C15.6833 15.0376 16.5271 13.9782 16.5271 12.047C16.5271 11.0157 16.3302 10.3407 15.8521 9.81572C15.3927 9.3001 14.9052 9.09385 14.1552 9.09385C13.7615 9.09385 13.4146 9.15947 13.1708 9.27197ZM14.5771 10.4438C14.8677 10.7345 14.999 11.2407 14.999 12.0938C14.9896 13.1907 14.6708 13.8751 14.1552 13.8751C13.6396 13.8751 13.3208 13.1907 13.3115 12.0938C13.3115 11.7095 13.3583 11.2313 13.4146 11.0251C13.5365 10.5938 13.8833 10.2188 14.1552 10.2188C14.2677 10.2188 14.4552 10.322 14.5771 10.4438Z" fill="black"/>
<path d="M8.1375 9.7125L7.40625 10.2281V10.8937V11.55L7.66875 11.3906C7.80938 11.2969 8.1375 11.0812 8.39063 10.9031L8.85938 10.5937L8.8875 12.75L8.90625 14.9062H9.65625H10.4063V12.0469V9.1875H9.6375L8.85938 9.19687L8.1375 9.7125Z" fill="black"/>
</svg>
