<svg width="513" height="110" viewBox="0 0 513 110" fill="none" xmlns="http://www.w3.org/2000/svg">
<path d="M47.5 109.5L1.5 2.5H22L57 80L89.5 2.5H110L64.5 109.5H47.5Z" fill="#DD6E4B" stroke="#DD6E4B"/>
<circle cx="236" cy="54" r="24" fill="#DD6E4B"/>
<path fill-rule="evenodd" clip-rule="evenodd" d="M164 1C136.386 1 114 23.3858 114 51V58C114 85.6142 136.386 108 164 108H241C268.614 108 291 85.6142 291 58V51C291 23.3858 268.614 1 241 1H164ZM169.5 16C148.237 16 131 33.237 131 54.5C131 75.763 148.237 93 169.5 93H235.5C256.763 93 274 75.763 274 54.5C274 33.237 256.763 16 235.5 16H169.5Z" fill="#DD6E4B"/>
<path d="M332 53.5L295.5 2H318.5L345 38L370 2H392.5L357 53.5L395 108H371.5L343 68.5L315.5 108H293L332 53.5Z" fill="#DD6E4B" stroke="#DD6E4B"/>
<path fill-rule="evenodd" clip-rule="evenodd" d="M513 55C513 57.8906 512.777 60.7295 512.351 63.5H512H423.5C424.333 70.1665 430.1 85 446.5 91C467 98.5 486 81 489 74.5H509H509.441C501.572 95.2505 481.509 110 458 110C427.624 110 403 85.3755 403 55C403 24.6245 427.624 0 458 0C488.376 0 513 24.6245 513 55ZM424 45H491.5C489.333 36.3335 480.5 18.9004 462.5 18.5C440 18 429 27 424 45Z" fill="#DD6E4B"/>
</svg>
