<svg width="24" height="24" viewBox="0 0 24 24" fill="none" xmlns="http://www.w3.org/2000/svg">
<path d="M12 7C13.1046 7 14 6.10457 14 5C14 3.89543 13.1046 3 12 3C10.8954 3 10 3.89543 10 5C10 6.10457 10.8954 7 12 7Z" stroke="#243B43" stroke-width="1.5" stroke-linecap="round" stroke-linejoin="round"/>
<path d="M10 22V17L9 16V12C9 11.7348 9.10536 11.4804 9.29289 11.2929C9.48043 11.1054 9.73478 11 10 11H14C14.2652 11 14.5196 11.1054 14.7071 11.2929C14.8946 11.4804 15 11.7348 15 12V16L14 17V22" stroke="#243B43" stroke-width="1.5" stroke-linecap="round" stroke-linejoin="round"/>
</svg>
