<svg width="81" height="62" viewBox="0 0 81 62" fill="none" xmlns="http://www.w3.org/2000/svg">
<path d="M14.7256 61.6919V57.5884C14.7256 56.015 13.7529 54.9893 12.0858 54.9893C11.2524 54.9893 10.3493 55.2629 9.72412 56.1521C9.23812 55.3997 8.54361 54.9893 7.50168 54.9893C6.80685 54.9893 6.11266 55.1943 5.55673 55.9468V55.1261H4.0981V61.6919H5.55673V58.0669C5.55673 56.9045 6.18195 56.3571 7.15458 56.3571C8.12658 56.3571 8.61322 56.9727 8.61322 58.0669V61.6919H10.0718V58.0669C10.0718 56.9045 10.766 56.3571 11.6691 56.3571C12.6417 56.3571 13.1277 56.9727 13.1277 58.0669V61.6919H14.7256ZM36.3269 55.1261H33.9656V53.1427H32.5069V55.1261H31.1872V56.4253H32.5066V59.435C32.5066 60.9398 33.1319 61.8287 34.799 61.8287C35.4242 61.8287 36.1184 61.6237 36.605 61.3501L36.188 60.1188C35.7713 60.3924 35.2853 60.4609 34.9379 60.4609C34.2434 60.4609 33.9656 60.0506 33.9656 59.3664V56.4253H36.3269V55.1261ZM48.6908 54.989C47.8574 54.989 47.3018 55.3997 46.9544 55.9468V55.1261H45.4957V61.6919H46.9544V57.9987C46.9544 56.9045 47.4404 56.2889 48.3434 56.2889C48.6212 56.2889 48.9686 56.3574 49.2464 56.4256L49.6631 55.0579C49.3853 54.9893 48.9686 54.9893 48.6908 54.9893V54.989ZM30.0064 55.6732C29.3116 55.1943 28.3392 54.9893 27.2973 54.9893C25.6305 54.9893 24.5193 55.81 24.5193 57.1095C24.5193 58.204 25.3527 58.8193 26.8113 59.0246L27.5058 59.0932C28.27 59.2296 28.6867 59.435 28.6867 59.7771C28.6867 60.2556 28.1311 60.5977 27.1584 60.5977C26.1861 60.5977 25.422 60.2556 24.9357 59.9138L24.2412 61.008C25.0053 61.5551 26.0472 61.8287 27.0888 61.8287C29.0338 61.8287 30.1453 60.9398 30.1453 59.7085C30.1453 58.5458 29.2423 57.9301 27.8529 57.7251L27.1584 57.6566C26.5332 57.588 26.0472 57.4516 26.0472 57.0413C26.0472 56.5624 26.5332 56.2889 27.2973 56.2889C28.1311 56.2889 28.9645 56.6306 29.3812 56.8359L30.0064 55.6732ZM68.7646 54.9893C67.9308 54.9893 67.3752 55.3997 67.0278 55.9468V55.1261H65.5692V61.6919H67.0278V57.9987C67.0278 56.9045 67.5141 56.2889 68.4168 56.2889C68.695 56.2889 69.0424 56.3574 69.3202 56.4256L69.7369 55.0579C69.4591 54.9893 69.0424 54.9893 68.7646 54.9893ZM50.1494 58.409C50.1494 60.3924 51.5385 61.8287 53.6919 61.8287C54.6642 61.8287 55.3588 61.6237 56.0533 61.0766L55.3588 59.9138C54.8032 60.3241 54.2475 60.5292 53.6223 60.5292C52.4415 60.5292 51.6081 59.7085 51.6081 58.409C51.6081 57.178 52.4415 56.3571 53.6223 56.2889C54.2475 56.2889 54.8032 56.4939 55.3588 56.9045L56.0533 55.7418C55.3588 55.1943 54.6642 54.9893 53.6919 54.9893C51.5385 54.9893 50.1494 56.4256 50.1494 58.409ZM63.6246 58.409V55.1261H62.1659V55.9468C61.6796 55.3314 60.9851 54.9893 60.0821 54.9893C58.2067 54.9893 56.7481 56.4256 56.7481 58.409C56.7481 60.3924 58.2067 61.8287 60.0821 61.8287C61.0544 61.8287 61.7492 61.4869 62.1659 60.8712V61.6919H63.6246V58.409ZM58.276 58.409C58.276 57.2463 59.0401 56.2889 60.2903 56.2889C61.4711 56.2889 62.3048 57.178 62.3048 58.409C62.3048 59.5717 61.4711 60.5292 60.2903 60.5292C59.0401 60.4606 58.276 59.5717 58.276 58.409ZM40.842 54.9893C38.8971 54.9893 37.5078 56.3571 37.5078 58.409C37.5078 60.4609 38.8968 61.8287 40.9113 61.8287C41.8837 61.8287 42.8563 61.5551 43.6204 60.9398L42.9256 59.9138C42.37 60.3241 41.6755 60.5977 40.9809 60.5977C40.0779 60.5977 39.1749 60.1874 38.9664 59.0243H43.8982V58.4775C43.9678 56.3571 42.7174 54.9893 40.8417 54.9893H40.842ZM40.842 56.2203C41.7447 56.2203 42.3703 56.7677 42.5089 57.7937H39.036C39.1749 56.9045 39.8001 56.2203 40.842 56.2203ZM77.0301 58.409V52.5271H75.5714V55.9468C75.0851 55.3314 74.3906 54.9893 73.4876 54.9893C71.6122 54.9893 70.1536 56.4256 70.1536 58.409C70.1536 60.3924 71.6122 61.8287 73.4876 61.8287C74.4602 61.8287 75.1547 61.4869 75.5714 60.8712V61.6919H77.0301V58.409ZM71.6818 58.409C71.6818 57.2463 72.4456 56.2889 73.6961 56.2889C74.8769 56.2889 75.7103 57.178 75.7103 58.409C75.7103 59.5717 74.8769 60.5292 73.6961 60.5292C72.4456 60.4606 71.6818 59.5717 71.6818 58.409ZM22.9214 58.409V55.1261H21.4628V55.9468C20.9765 55.3314 20.282 54.9893 19.3789 54.9893C17.5036 54.9893 16.045 56.4256 16.045 58.409C16.045 60.3924 17.5036 61.8287 19.3789 61.8287C20.3516 61.8287 21.0461 61.4869 21.4628 60.8712V61.6919H22.9214V58.409ZM17.5036 58.409C17.5036 57.2463 18.2677 56.2889 19.5178 56.2889C20.6987 56.2889 21.5324 57.178 21.5324 58.409C21.5324 59.5717 20.6987 60.5292 19.5178 60.5292C18.2677 60.4606 17.5036 59.5717 17.5036 58.409Z" fill="black"/>
<path d="M29.5201 5.26636H51.3996V43.9777H29.5201V5.26636Z" fill="#FF5F00"/>
<path d="M30.9094 24.6221C30.9094 16.7568 34.6601 9.78042 40.425 5.26626C36.1883 1.98338 30.8401 0 25.0056 0C11.1827 0 0 11.0114 0 24.6221C0 38.2325 11.1827 49.2442 25.0053 49.2442C30.8398 49.2442 36.188 47.2608 40.425 43.9776C34.6601 39.532 30.9094 32.4874 30.9094 24.6221Z" fill="#EB001B"/>
<path d="M80.9196 24.6221C80.9196 38.2325 69.7369 49.2442 55.9144 49.2442C50.0798 49.2442 44.7316 47.2608 40.4946 43.9776C46.3292 39.4638 50.0105 32.4874 50.0105 24.6221C50.0105 16.7568 46.2596 9.78042 40.4946 5.26626C44.7313 1.98338 50.0798 0 55.9144 0C69.7369 0 80.92 11.0799 80.92 24.6221H80.9196Z" fill="#F79E1B"/>
</svg>
