<svg xmlns="http://www.w3.org/2000/svg" width="2622.001" height="3789.001" viewBox="0 0 2622.001 3789.001">
  <path id="Exclusion_1" data-name="Exclusion 1" d="M2622,3789H0V1896.528c.035,22.4.609,45.044,1.707,67.314,1.123,22.772,2.826,45.8,5.063,68.432,2.22,22.465,5.025,45.154,8.337,67.437,3.29,22.13,7.169,44.456,11.53,66.358,4.331,21.756,9.256,43.69,14.639,65.193,5.35,21.372,11.294,42.885,17.666,63.944,6.339,20.948,13.273,42.012,20.611,62.61,7.3,20.5,15.2,41.088,23.474,61.192,8.237,20.015,17.07,40.1,26.254,59.689,9.145,19.508,18.885,39.055,28.951,58.1,10.028,18.973,20.648,37.959,31.568,56.429,10.885,18.414,22.359,36.808,34.1,54.672,11.708,17.813,24.006,35.588,36.551,52.831,12.513,17.2,25.608,34.326,38.919,50.9,13.289,16.552,27.152,33,41.2,48.894s28.65,31.627,43.409,46.8,30.084,30.187,45.531,44.618,31.464,28.691,47.569,42.352,32.781,27.132,49.525,40c16.771,12.892,34.065,25.532,51.4,37.569,17.383,12.072,35.279,23.864,53.191,35.05,17.966,11.22,36.437,22.137,54.9,32.447,18.528,10.345,37.547,20.357,56.528,29.758,19.056,9.438,38.594,18.517,58.072,26.985,19.562,8.505,39.593,16.623,59.535,24.127,20.04,7.542,40.534,14.67,60.914,21.185,20.489,6.551,41.42,12.66,62.212,18.158,20.917,5.531,42.256,10.594,63.427,15.047,21.31,4.482,43.031,8.469,64.56,11.851,21.677,3.4,43.752,6.287,65.61,8.569,22.015,2.3,44.415,4.049,66.578,5.2,22.331,1.163,45.029,1.753,67.464,1.753s45.132-.59,67.464-1.753c22.164-1.155,44.564-2.906,66.578-5.2,21.858-2.281,43.933-5.165,65.61-8.569,21.53-3.382,43.25-7.369,64.56-11.851,21.169-4.453,42.509-9.515,63.427-15.047,20.794-5.5,41.725-11.608,62.212-18.158,20.38-6.515,40.875-13.643,60.915-21.185,19.94-7.5,39.97-15.622,59.535-24.127,19.476-8.467,39.014-17.546,58.072-26.985,18.977-9.4,38-19.41,56.528-29.758,18.465-10.31,36.936-21.227,54.9-32.447,17.915-11.188,35.811-22.98,53.191-35.05,17.347-12.045,34.64-24.685,51.4-37.569s33.411-26.333,49.526-40,32.11-27.91,47.569-42.352,30.766-29.444,45.53-44.618,29.375-30.927,43.409-46.8c14.051-15.89,27.914-32.34,41.205-48.894,13.311-16.579,26.406-33.706,38.919-50.9,12.541-17.236,24.838-35.01,36.551-52.831,11.737-17.856,23.21-36.251,34.1-54.672,10.925-18.481,21.546-37.467,31.567-56.429,10.061-19.035,19.8-38.583,28.952-58.1,9.185-19.592,18.018-39.675,26.254-59.689,8.269-20.092,16.167-40.68,23.474-61.192,7.339-20.6,14.272-41.667,20.611-62.61,6.372-21.059,12.316-42.572,17.666-63.944,5.382-21.5,10.307-43.434,14.639-65.193,4.363-21.916,8.241-44.242,11.529-66.358,3.313-22.292,6.118-44.981,8.337-67.437,2.237-22.635,3.939-45.66,5.063-68.432,1.133-22.959,1.707-46.289,1.707-69.342V3789Zm0-1894.5h0c0-23.036-.571-46.366-1.7-69.342-1.123-22.772-2.826-45.8-5.062-68.432-2.219-22.455-5.023-45.144-8.337-67.437-3.288-22.117-7.167-44.442-11.529-66.357-4.332-21.759-9.258-43.693-14.639-65.193-5.35-21.371-11.294-42.885-17.666-63.943-6.337-20.942-13.271-42.007-20.611-62.61-7.307-20.511-15.206-41.1-23.474-61.193-8.239-20.02-17.072-40.1-26.254-59.689-9.148-19.515-18.889-39.062-28.952-58.1-10.021-18.961-20.641-37.947-31.567-56.43-10.89-18.421-22.363-36.815-34.1-54.672-11.716-17.824-24.014-35.6-36.551-52.83-12.518-17.2-25.612-34.331-38.919-50.9-13.291-16.553-27.155-33-41.205-48.893-14.033-15.87-28.638-31.615-43.409-46.8s-30.082-30.186-45.53-44.617-31.464-28.691-47.569-42.352c-16.122-13.675-32.784-27.134-49.526-40-16.76-12.883-34.052-25.523-51.4-37.569-17.373-12.065-35.269-23.857-53.191-35.049-17.964-11.22-36.436-22.136-54.9-32.447-18.532-10.347-37.551-20.359-56.528-29.758-19.058-9.439-38.6-18.518-58.072-26.985-19.564-8.505-39.595-16.623-59.535-24.128-20.04-7.542-40.535-14.67-60.915-21.185-20.486-6.549-41.417-12.659-62.212-18.158-20.918-5.531-42.257-10.594-63.427-15.046-21.312-4.483-43.034-8.47-64.56-11.85-21.674-3.4-43.749-6.287-65.61-8.57-22.014-2.3-44.414-4.049-66.578-5.2C1356.132,547.59,1333.434,547,1311,547s-45.133.59-67.464,1.753c-22.164,1.155-44.563,2.906-66.578,5.2-21.862,2.282-43.936,5.165-65.61,8.57-21.526,3.38-43.248,7.367-64.56,11.85-21.17,4.452-42.509,9.515-63.427,15.046-20.792,5.5-41.723,11.608-62.212,18.158-20.38,6.515-40.875,13.643-60.914,21.185-19.943,7.505-39.973,15.622-59.535,24.128-19.477,8.468-39.016,17.547-58.072,26.985-18.982,9.4-38,19.412-56.528,29.758-18.464,10.31-36.935,21.227-54.9,32.447-17.919,11.191-35.815,22.983-53.191,35.049-17.335,12.037-34.629,24.677-51.4,37.569-16.738,12.866-33.4,26.325-49.525,40-16.105,13.661-32.11,27.911-47.569,42.352s-30.765,29.442-45.531,44.617-29.365,30.917-43.409,46.8-27.915,32.342-41.2,48.893c-13.307,16.574-26.4,33.7-38.919,50.9-12.543,17.239-24.84,35.013-36.551,52.83-11.742,17.865-23.215,36.259-34.1,54.672-10.92,18.472-21.54,37.458-31.568,56.43-10.068,19.05-19.809,38.6-28.951,58.1-9.183,19.587-18.016,39.669-26.254,59.689-8.273,20.105-16.172,40.693-23.474,61.193-7.339,20.6-14.273,41.665-20.611,62.61-6.372,21.059-12.316,42.573-17.666,63.943-5.383,21.5-10.308,43.438-14.639,65.193-4.361,21.9-8.24,44.227-11.53,66.357-3.312,22.283-6.117,44.972-8.337,67.437-2.237,22.635-3.94,45.66-5.063,68.432-1.1,22.27-1.672,44.917-1.7,67.313L0,0H2622Z" transform="translate(0.001)" fill="rgba(0,0,0,0.36)"/>
</svg>
