<svg width="250" height="250" viewBox="0 0 250 250" fill="none" xmlns="http://www.w3.org/2000/svg">
<path d="M126.87 238.805C191.843 238.805 244.515 208.394 244.515 170.88C244.515 133.366 191.843 102.955 126.87 102.955C61.8961 102.955 9.22461 133.366 9.22461 170.88C9.22461 208.394 61.8961 238.805 126.87 238.805Z" fill="#F5F5F5"/>
<path d="M204.44 204.19C222.872 204.19 237.815 195.563 237.815 184.92C237.815 174.278 222.872 165.65 204.44 165.65C186.007 165.65 171.065 174.278 171.065 184.92C171.065 195.563 186.007 204.19 204.44 204.19Z" fill="#E0E0E0"/>
<path d="M119.975 195.315L82.3252 173.57L125.36 148.725L163.015 170.465L119.975 195.315Z" fill="#E0E0E0"/>
<path d="M17.4551 188.59L66.0151 216.625L106.745 193.115L58.1851 165.08L17.4551 188.59Z" fill="#E0E0E0"/>
<path d="M89.26 56.815V54.055C89.2393 53.8956 89.1778 53.7441 89.0815 53.6154C88.9851 53.4866 88.8572 53.3849 88.71 53.32L72.045 43.76C71.6479 43.5604 71.2095 43.4564 70.765 43.4564C70.3205 43.4564 69.8822 43.5604 69.485 43.76L21.59 71.26C21.4429 71.3249 21.315 71.4266 21.2186 71.5554C21.1223 71.6841 21.0608 71.8356 21.04 71.995V74.755C21.0603 74.9147 21.1216 75.0663 21.218 75.1951C21.3144 75.324 21.4426 75.4256 21.59 75.49L38.25 85.035C38.6472 85.2347 39.0855 85.3386 39.53 85.3386C39.9745 85.3386 40.4129 85.2347 40.81 85.035L88.705 57.535C88.8525 57.4706 88.9807 57.369 89.0771 57.2401C89.1735 57.1113 89.2348 56.9597 89.255 56.8L89.26 56.815Z" fill="#F0F0F0"/>
<path d="M21.5903 72.715L38.2503 82.275C38.6467 82.477 39.0853 82.5823 39.5303 82.5823C39.9752 82.5823 40.4138 82.477 40.8103 82.275L88.7053 54.775C89.4103 54.37 89.4103 53.715 88.7053 53.305L72.0453 43.76C71.6481 43.5604 71.2098 43.4564 70.7653 43.4564C70.3208 43.4564 69.8824 43.5604 69.4853 43.76L21.5903 71.26C20.8853 71.655 20.8853 72.31 21.5903 72.715Z" fill="#FAFAFA"/>
<path d="M39.53 82.5851V85.3401C39.0846 85.3466 38.6447 85.2418 38.25 85.0351L21.59 75.5001C21.4426 75.4356 21.3144 75.334 21.218 75.2052C21.1216 75.0764 21.0603 74.9247 21.04 74.7651V72.0001C21.0498 71.8883 21.0858 71.7804 21.145 71.6851C20.95 72.0401 21.095 72.4501 21.59 72.7351L38.25 82.2801C38.6436 82.4896 39.0843 82.5946 39.53 82.5851Z" fill="#E0E0E0"/>
<path d="M48.48 59.265L62.595 67.31L85.91 53.93L71.8 45.88L48.48 59.265Z" fill="#E0E0E0"/>
<path d="M62.7549 66.6999L49.1399 58.8849C49.4937 57.7306 49.4675 56.4932 49.0649 55.3549L62.5949 63.0849C62.5949 63.0849 62.8549 63.9399 62.7549 66.6999Z" fill="white"/>
<path d="M61.9 62C62.28 62.2455 62.5967 62.5772 62.8243 62.9682C63.0519 63.3592 63.1841 63.7983 63.21 64.25V66.88C63.21 67.71 62.62 68.045 61.9 67.635L48.5 59.915V59.265L61.74 66.815C62.175 67.065 62.525 66.86 62.525 66.365V63.925C62.51 63.654 62.431 63.3904 62.2946 63.1558C62.1581 62.9211 61.9681 62.7221 61.74 62.575L48.5 55V54.26L61.9 62Z" fill="#EBEBEB"/>
<path d="M48.5 54.285L71.8 40.9L85.215 48.6C85.5959 48.8457 85.9132 49.1781 86.1409 49.5701C86.3686 49.962 86.5002 50.4023 86.525 50.855V53.5C86.5428 53.6617 86.5163 53.8252 86.4485 53.9731C86.3807 54.1211 86.2741 54.2478 86.14 54.34L62.825 67.725C62.9566 67.6307 63.0611 67.5035 63.1278 67.356C63.1945 67.2085 63.2212 67.046 63.205 66.885V64.25C63.1807 63.7979 63.0492 63.3581 62.8214 62.9669C62.5936 62.5757 62.2761 62.2443 61.895 62L48.5 54.285Z" fill="#FAFAFA"/>
<path d="M62.8252 62.955C63.0629 63.3408 63.1956 63.7821 63.2102 64.235V66.87C63.2264 67.0311 63.1997 67.1936 63.133 67.341C63.0663 67.4885 62.9618 67.6158 62.8302 67.71L86.1452 54.325C86.2793 54.2329 86.386 54.1061 86.4537 53.9582C86.5215 53.8103 86.548 53.6468 86.5302 53.485V50.855C86.5156 50.4021 86.3829 49.9608 86.1452 49.575L62.8252 62.955Z" fill="#F0F0F0"/>
<path d="M34.1301 39.2401L33.9951 41.0201L49.7551 49.475L50.1101 48.4351L34.1301 39.2401Z" fill="#EBEBEB"/>
<path d="M49.9 48.85L34.635 40.04L31.98 41.57L47.545 50.675L49.9 48.85Z" fill="white"/>
<path d="M44.6802 49.73L43.1802 67.42C43.1876 67.6197 43.2427 67.8148 43.341 67.9888C43.4393 68.1628 43.5779 68.3107 43.7452 68.42L52.6002 73.545C52.7415 73.6232 52.8989 73.6676 53.0602 73.675L47.5602 51.27C47.3997 51.2613 47.243 51.2187 47.1002 51.145L46.4652 50.775L44.6802 49.73Z" fill="#E0E0E0"/>
<path d="M48.22 51.125L49.8 49.77L50.955 48.77C51.075 48.58 51.215 48.44 51.14 48.27L56.57 70.51C56.645 70.665 56.665 71.01 56.45 71.14L53.715 73.48C53.508 73.5896 53.273 73.6349 53.04 73.61L47.54 51.205C47.7697 51.2446 48.0059 51.2168 48.22 51.125Z" fill="#F0F0F0"/>
<path d="M50.9604 48.125C51.2704 48.305 51.1954 48.505 50.9604 48.775L48.2204 51.12C48.046 51.2111 47.8521 51.2587 47.6554 51.2587C47.4586 51.2587 47.2648 51.2111 47.0904 51.12L44.6804 49.73C44.3654 49.55 44.3104 49.29 44.5554 49.15C44.7164 49.0847 44.8902 49.0571 45.0635 49.0692C45.2368 49.0813 45.405 49.1329 45.5554 49.22L47.4554 50.32C47.5135 50.3495 47.5777 50.3648 47.6429 50.3648C47.708 50.3648 47.7723 50.3495 47.8304 50.32L49.8304 48.58C49.9354 48.52 49.9354 48.425 49.8304 48.365L34.1304 39.24L34.8804 38.805L50.9604 48.125Z" fill="#FAFAFA"/>
<path d="M29.5796 40.095L44.5946 48.765V77.335L29.5796 68.66V40.095Z" fill="#EBEBEB"/>
<path d="M44.1099 49.24L29.5799 40.9C28.6912 41.8421 27.5274 42.4792 26.2549 42.72L40.6649 51.025C40.6649 51.025 41.5949 50.805 44.1099 49.24Z" fill="white"/>
<path d="M39.2698 51C39.7029 51.2169 40.1805 51.3298 40.6648 51.3298C41.1491 51.3298 41.6268 51.2169 42.0598 51L44.4998 49.57C45.2698 49.125 45.2698 48.41 44.4998 47.965L30.1848 39.745L29.5798 40.095L43.6648 48.23C43.7687 48.2603 43.8599 48.3235 43.9248 48.41C43.9897 48.4966 44.0248 48.6018 44.0248 48.71C44.0248 48.8182 43.9897 48.9235 43.9248 49.01C43.8599 49.0966 43.7687 49.1597 43.6648 49.19L41.3898 50.5C41.13 50.6306 40.8432 50.6986 40.5523 50.6986C40.2615 50.6986 39.9747 50.6306 39.7148 50.5L25.6348 42.36L24.9448 42.755L39.2698 51Z" fill="#FAFAFA"/>
<path d="M24.9502 42.755V71.32L39.2702 79.54C39.7032 79.7569 40.1809 79.8699 40.6652 79.8699C41.1495 79.8699 41.6272 79.7569 42.0602 79.54L44.5102 78.135C44.6694 78.0648 44.8069 77.953 44.908 77.8114C45.0092 77.6697 45.0704 77.5035 45.0852 77.33V48.765C45.0697 48.939 45.007 49.1054 44.9039 49.2464C44.8008 49.3873 44.6612 49.4975 44.5002 49.565L42.0602 51C41.6272 51.2169 41.1495 51.3299 40.6652 51.3299C40.1809 51.3299 39.7032 51.2169 39.2702 51L24.9502 42.755Z" fill="#EBEBEB"/>
<path d="M40.6648 51.305C41.1502 51.3145 41.6301 51.201 42.0598 50.975L44.4998 49.565C44.659 49.496 44.7965 49.3852 44.8977 49.2444C44.999 49.1035 45.0602 48.9378 45.0748 48.765V77.33C45.06 77.5034 44.9988 77.6697 44.8976 77.8113C44.7965 77.9529 44.659 78.0647 44.4998 78.135L42.0498 79.54C41.6201 79.766 41.1402 79.8795 40.6548 79.87L40.6648 51.305Z" fill="#F0F0F0"/>
<path d="M161.285 155C161.21 153.735 161.04 152.22 160.835 150.46C160.07 143.78 159.025 134.63 161.795 125.865C163.48 120.53 167.54 114.205 173.88 112.45C175.29 112.06 178.7 111.485 180.01 114.51C180.194 114.947 180.304 115.412 180.335 115.885C180.47 117.805 179.605 119.5 178.645 121.045C177.54 122.84 176.26 124.545 175.02 126.205C173.85 127.775 172.635 129.395 171.575 131.075C170.43 132.9 169.427 134.811 168.575 136.79L168.17 136.615C169.021 134.616 170.024 132.685 171.17 130.84C172.235 129.145 173.455 127.515 174.635 125.94C175.865 124.29 177.135 122.59 178.235 120.815C179.155 119.315 179.985 117.71 179.86 115.915C179.833 115.492 179.735 115.076 179.57 114.685C178.4 111.98 175.26 112.52 173.965 112.875C167.795 114.585 163.83 120.775 162.18 125.995C159.44 134.675 160.48 143.77 161.24 150.41C161.44 152.175 161.615 153.7 161.69 154.975L161.285 155Z" fill="#FF5722"/>
<path d="M161.735 162.27C161.702 162.275 161.668 162.275 161.635 162.27C161.539 162.251 161.449 162.21 161.371 162.15C161.294 162.091 161.232 162.013 161.19 161.925C161.103 161.677 161.103 161.408 161.19 161.16C161.26 160.681 161.26 160.194 161.19 159.715C161.19 159.445 161.145 159.16 161.145 158.905V155.8C161.544 150.222 163.179 144.803 165.93 139.935C168.37 135.69 171.07 132.865 174.43 131.035C176.241 130.04 178.228 129.403 180.28 129.16C182.092 128.96 183.913 129.441 185.39 130.51C186.915 131.715 187.6 133.78 187.025 135.415C186.62 136.56 185.695 137.415 184.75 138.19C183.065 139.565 181.225 140.795 179.45 141.985C177.975 142.985 176.45 143.985 175.025 145.085C170.665 148.45 167.008 152.637 164.26 157.41C163.81 158.185 163.385 158.985 162.995 159.785L162.835 160.1C162.679 160.386 162.542 160.681 162.425 160.985C162.4 161.05 162.375 161.185 162.34 161.34C162.315 161.625 162.224 161.901 162.075 162.145C161.981 162.228 161.86 162.272 161.735 162.27ZM181 129.575C180.775 129.575 180.55 129.575 180.32 129.605C178.328 129.837 176.401 130.456 174.645 131.425C171.365 133.21 168.72 135.985 166.32 140.155C163.606 144.963 161.992 150.313 161.595 155.82V158.895C161.595 159.135 161.595 159.395 161.64 159.67C161.72 160.194 161.72 160.726 161.64 161.25C161.586 161.412 161.586 161.588 161.64 161.75C161.653 161.775 161.671 161.797 161.694 161.815C161.716 161.832 161.742 161.844 161.77 161.85C161.859 161.665 161.92 161.468 161.95 161.265C161.974 161.126 162.007 160.989 162.05 160.855C162.172 160.534 162.316 160.222 162.48 159.92L162.635 159.61C163.035 158.8 163.465 157.995 163.915 157.21C164.85 155.592 165.887 154.036 167.02 152.55C169.26 149.623 171.874 147.003 174.795 144.755C176.235 143.655 177.765 142.63 179.245 141.64C181.015 140.455 182.84 139.23 184.515 137.87C185.405 137.145 186.28 136.33 186.65 135.29C187.15 133.825 186.535 131.97 185.15 130.875C183.954 129.983 182.491 129.525 181 129.575Z" fill="#FF5722"/>
<path d="M161.36 158H161.305C161.277 157.994 161.25 157.982 161.227 157.965C161.203 157.948 161.184 157.926 161.169 157.901C161.154 157.877 161.144 157.849 161.14 157.821C161.136 157.792 161.138 157.763 161.145 157.735C165.27 141.285 176.675 133.945 182.765 132.2C182.821 132.184 182.88 132.192 182.931 132.22C182.981 132.248 183.019 132.294 183.035 132.35C183.051 132.406 183.044 132.466 183.016 132.518C182.988 132.569 182.941 132.608 182.885 132.625C176.885 134.34 165.65 141.585 161.575 157.84C161.561 157.886 161.533 157.927 161.494 157.955C161.455 157.984 161.408 158 161.36 158Z" fill="#FF5722"/>
<path d="M161.335 144.5C161.277 144.495 161.222 144.467 161.184 144.422C161.145 144.377 161.126 144.319 161.13 144.26C162.445 126.495 174.065 116.76 175.385 115.715C175.408 115.696 175.434 115.682 175.462 115.674C175.49 115.665 175.519 115.663 175.548 115.666C175.577 115.669 175.605 115.678 175.63 115.693C175.656 115.707 175.678 115.727 175.695 115.75C175.714 115.773 175.727 115.799 175.735 115.826C175.743 115.854 175.746 115.883 175.742 115.912C175.739 115.941 175.73 115.969 175.716 115.994C175.702 116.02 175.683 116.042 175.66 116.06C174.355 117.095 162.87 126.715 161.575 144.295C161.569 144.353 161.541 144.407 161.496 144.445C161.452 144.483 161.394 144.503 161.335 144.5Z" fill="#FF5722"/>
<path d="M159.95 82.545L132.145 66.5C131.93 66.3457 131.678 66.2509 131.414 66.2255C131.151 66.2 130.885 66.2447 130.645 66.355L128.645 67.51C128.425 67.6631 128.25 67.8723 128.138 68.1159C128.027 68.3595 127.982 68.6285 128.01 68.895V145C128.051 145.742 128.266 146.463 128.638 147.106C129.009 147.749 129.528 148.295 130.15 148.7L157.95 164.725C158.164 164.88 158.416 164.976 158.68 165.002C158.943 165.028 159.209 164.985 159.45 164.875L161.45 163.715C161.667 163.561 161.84 163.352 161.949 163.11C162.059 162.867 162.103 162.6 162.075 162.335V86.245C162.036 85.5047 161.824 84.784 161.454 84.1412C161.085 83.4984 160.57 82.9515 159.95 82.545Z" fill="#263238"/>
<path d="M134 146.305L132 147.46V153.79C132.01 153.975 132.063 154.156 132.156 154.316C132.249 154.477 132.379 154.614 132.535 154.715L133.47 155.255C133.635 155.339 133.819 155.383 134.005 155.383C134.19 155.383 134.374 155.339 134.54 155.255L135.475 154.715C135.807 154.5 136.064 154.187 136.21 153.82L138.015 148.62L134 146.305Z" fill="#263238"/>
<path d="M132 153.79C132.01 153.975 132.063 154.156 132.156 154.317C132.249 154.477 132.379 154.614 132.535 154.715L133.47 155.255C133.534 155.294 133.607 155.318 133.682 155.325C133.757 155.332 133.833 155.322 133.904 155.296C133.974 155.269 134.038 155.227 134.09 155.172C134.142 155.118 134.181 155.052 134.205 154.98L136 149.775L132 147.46V153.79Z" fill="#37474F"/>
<path d="M154.06 157.85L152.06 159.01V165.335C152.069 165.521 152.122 165.702 152.214 165.863C152.306 166.025 152.435 166.163 152.59 166.265L153.53 166.805C153.695 166.889 153.877 166.933 154.063 166.933C154.248 166.933 154.43 166.889 154.595 166.805L155.535 166.265C155.867 166.05 156.124 165.738 156.27 165.37L158.07 160.165L154.06 157.85Z" fill="#263238"/>
<path d="M152.06 165.335C152.069 165.521 152.122 165.702 152.214 165.863C152.306 166.025 152.435 166.162 152.59 166.265L153.53 166.805C153.595 166.844 153.667 166.868 153.742 166.875C153.818 166.882 153.893 166.872 153.964 166.846C154.035 166.819 154.099 166.777 154.151 166.722C154.203 166.668 154.242 166.602 154.265 166.53L156.07 161.325L152.07 159.01L152.06 165.335Z" fill="#37474F"/>
<path d="M130.28 67.715L158.08 83.715C158.702 84.1213 159.221 84.6684 159.592 85.312C159.964 85.9557 160.179 86.6778 160.22 87.42V163.525C160.273 163.792 160.241 164.07 160.128 164.318C160.016 164.566 159.828 164.772 159.592 164.909C159.356 165.045 159.083 165.104 158.812 165.077C158.541 165.05 158.285 164.94 158.08 164.76L130.28 148.73C129.658 148.325 129.141 147.778 128.77 147.135C128.399 146.493 128.185 145.771 128.145 145.03V68.945C128.091 68.6782 128.123 68.4013 128.235 68.1534C128.348 67.9055 128.535 67.699 128.771 67.5632C129.006 67.4273 129.279 67.3689 129.55 67.3961C129.821 67.4234 130.076 67.5349 130.28 67.715Z" fill="#37474F"/>
<path d="M89.9102 171.74L119.98 189.1L162.08 164.795L160.075 163.635L130.005 146.275L89.9102 169.425V171.74Z" fill="#455A64"/>
<path d="M119.98 189.1V186.785L162.08 162.48V164.795L119.98 189.1Z" fill="#263238"/>
<path d="M120.17 185.73L119.865 185.525C125.2 177.45 125.165 163.5 124.73 160C124.695 159.765 124.67 159.62 124.665 159.565L125.03 159.505C125.03 159.615 125.07 159.745 125.09 159.9C125.48 162.375 127.685 175.82 130.295 179.9L129.985 180.1C127.92 176.895 126.155 168.245 125.27 163.255C125.325 168.92 124.5 179.215 120.17 185.73Z" fill="#FAFAFA"/>
<path d="M137.73 173.4C137.275 173.265 126.645 170.045 125.665 165.355L126.03 165.28C126.96 169.755 137.725 173.015 137.835 173.05L137.73 173.4Z" fill="#FAFAFA"/>
<path d="M127 171.5L126.73 170.355C126.693 170.145 126.586 169.953 126.426 169.811C126.266 169.67 126.063 169.586 125.85 169.575C125.674 169.549 125.494 169.578 125.335 169.658C125.176 169.737 125.045 169.864 124.96 170.02L124.615 169.875C124.73 169.646 124.914 169.459 125.141 169.339C125.367 169.219 125.625 169.172 125.88 169.205C126.064 169.217 126.243 169.267 126.406 169.353C126.569 169.44 126.712 169.559 126.825 169.705C126.885 169.231 127.127 168.799 127.5 168.5C127.641 168.426 127.799 168.39 127.959 168.395C128.118 168.401 128.274 168.447 128.41 168.53L128.245 168.86C128.161 168.806 128.066 168.775 127.967 168.769C127.868 168.763 127.769 168.782 127.68 168.825C127.255 169.065 127.09 169.99 127.065 170.325L127 171.5Z" fill="#FAFAFA"/>
<path d="M128.045 175.315L127.715 174.275C127.34 173.1 126.715 172.425 125.975 172.38C125.666 172.374 125.362 172.458 125.1 172.623C124.838 172.787 124.629 173.024 124.5 173.305L124.165 173.145C124.323 172.794 124.582 172.498 124.909 172.294C125.235 172.09 125.615 171.988 126 172C126.445 172.025 127.21 172.265 127.78 173.425C127.905 172.51 128.28 171.04 129.245 170.425C129.591 170.235 129.981 170.138 130.376 170.142C130.771 170.146 131.158 170.252 131.5 170.45L131.345 170.785C131.059 170.615 130.734 170.522 130.401 170.515C130.068 170.507 129.739 170.584 129.445 170.74C128.16 171.54 128.075 174.185 128.075 174.215L128.045 175.315Z" fill="#FAFAFA"/>
<path d="M123.53 177.855L123.2 177.685C123.94 176.26 125.565 175.235 126.975 175.305C127.274 175.308 127.568 175.379 127.837 175.511C128.105 175.644 128.34 175.835 128.525 176.07C128.66 175.351 128.94 174.666 129.348 174.058C129.755 173.449 130.281 172.93 130.895 172.53C131.553 172.093 132.313 171.832 133.101 171.774C133.889 171.715 134.679 171.86 135.395 172.195L135.25 172.53C134.59 172.225 133.864 172.093 133.139 172.147C132.415 172.201 131.716 172.44 131.11 172.84C130.461 173.26 129.92 173.826 129.529 174.493C129.139 175.16 128.909 175.909 128.86 176.68V177.625L128.51 176.745C128.394 176.432 128.185 176.162 127.912 175.971C127.638 175.78 127.313 175.677 126.98 175.675C125.685 175.61 124.21 176.55 123.53 177.855Z" fill="#FAFAFA"/>
<path d="M121.5 183.375L121.175 183.195C121.625 182.375 124.02 178.255 126.855 177.51C127.255 177.395 127.675 177.367 128.087 177.426C128.499 177.486 128.894 177.632 129.245 177.855L129.055 178.17C128.745 177.974 128.398 177.846 128.035 177.793C127.673 177.741 127.303 177.765 126.95 177.865C124.87 178.415 122.72 181.175 121.5 183.375Z" fill="#FAFAFA"/>
<path d="M158.07 139.33V141.645L119.98 163.635L89.9102 146.275V143.96L128 121.97L158.07 139.33Z" fill="#263238"/>
<path d="M158.07 139.33L119.98 161.32L89.9102 143.96L128 121.97L158.07 139.33Z" fill="#455A64"/>
<path d="M158.07 113.87V116.18L119.98 138.175L89.9102 120.81V118.5L128 96.505L158.07 113.87Z" fill="#263238"/>
<path d="M158.07 113.87L119.98 135.86L89.9102 118.5L128 96.505L158.07 113.87Z" fill="#455A64"/>
<path d="M119.85 105.665L92.0499 89.64C91.8353 89.4848 91.5836 89.3892 91.3201 89.3629C91.0566 89.3365 90.7909 89.3804 90.5499 89.49C90.1899 89.695 88.9099 90.44 88.5499 90.645C88.3309 90.7987 88.157 91.0081 88.0462 91.2517C87.9355 91.4952 87.8918 91.7639 87.9199 92.03V168.115C87.9607 168.856 88.1758 169.578 88.5476 170.221C88.9194 170.864 89.4375 171.41 90.0599 171.815L117.86 187.845C118.074 188 118.326 188.096 118.59 188.122C118.853 188.148 119.119 188.105 119.36 187.995C119.72 187.785 121.01 187.045 121.36 186.83C121.58 186.678 121.755 186.47 121.868 186.227C121.98 185.984 122.026 185.716 122 185.45V109.37C121.959 108.627 121.742 107.904 121.369 107.26C120.995 106.616 120.475 106.07 119.85 105.665Z" fill="#263238"/>
<path opacity="0.2" d="M119.98 117.345L121.99 116.185V109.235L119.975 110.395L119.98 117.345Z" fill="black"/>
<path opacity="0.2" d="M160.08 94.195L162.09 93.04V86.09L160.075 87.25L160.08 94.195Z" fill="black"/>
<path d="M93.9199 169.425L91.9199 170.58V176.91C91.93 177.095 91.9838 177.276 92.0767 177.436C92.1697 177.597 92.2993 177.734 92.4549 177.835L93.3899 178.375C93.5558 178.459 93.7391 178.503 93.9249 178.503C94.1108 178.503 94.2941 178.459 94.4599 178.375L95.3949 177.835C95.7258 177.621 95.9826 177.31 96.1299 176.945L97.9349 171.74L93.9199 169.425Z" fill="#263238"/>
<path d="M91.9146 176.91C91.9247 177.095 91.9784 177.276 92.0713 177.436C92.1643 177.597 92.2939 177.734 92.4495 177.835L93.3845 178.375C93.4492 178.414 93.5218 178.438 93.597 178.445C93.6721 178.452 93.7479 178.442 93.8187 178.415C93.8894 178.389 93.9532 178.347 94.0053 178.292C94.0574 178.238 94.0965 178.172 94.1195 178.1L95.9245 172.895L91.9246 170.58L91.9146 176.91Z" fill="#37474F"/>
<path d="M113.965 181L111.965 182.155V188.485C111.974 188.67 112.027 188.85 112.119 189.011C112.211 189.172 112.34 189.309 112.495 189.41L113.435 189.95C113.6 190.034 113.782 190.078 113.967 190.078C114.152 190.078 114.335 190.034 114.5 189.95L115.44 189.41C115.769 189.195 116.026 188.884 116.175 188.52L117.975 183.315L113.965 181Z" fill="#263238"/>
<path d="M111.965 188.46C111.974 188.645 112.027 188.825 112.119 188.986C112.211 189.147 112.34 189.284 112.495 189.385L113.435 189.925C113.499 189.964 113.572 189.988 113.647 189.995C113.722 190.002 113.798 189.992 113.869 189.966C113.94 189.939 114.003 189.897 114.056 189.842C114.108 189.788 114.147 189.722 114.17 189.65L115.97 184.445L111.97 182.13L111.965 188.46Z" fill="#37474F"/>
<path d="M90.0397 90.8L117.845 106.825C118.467 107.231 118.984 107.779 119.355 108.422C119.726 109.066 119.94 109.788 119.98 110.53V189.1C119.98 189.1 118.435 188.185 117.845 187.845L90.0447 171.815C89.4224 171.41 88.9042 170.864 88.5324 170.221C88.1606 169.578 87.9456 168.857 87.9047 168.115V92.03C87.8513 91.7632 87.8829 91.4863 87.9951 91.2383C88.1074 90.9904 88.2946 90.784 88.5304 90.6481C88.7663 90.5123 89.0388 90.4539 89.3095 90.4811C89.5803 90.5084 89.8357 90.6199 90.0397 90.8Z" fill="#37474F"/>
<path opacity="0.2" d="M117.845 106.825L90.0397 90.8C89.8357 90.6199 89.5803 90.5084 89.3095 90.4811C89.0388 90.4539 88.7663 90.5123 88.5304 90.6481C88.2946 90.784 88.1074 90.9904 87.9951 91.2383C87.8829 91.4863 87.8513 91.7632 87.9047 92.03V98.825L119.98 117.325V110.53C119.94 109.788 119.726 109.066 119.355 108.422C118.984 107.779 118.467 107.232 117.845 106.825Z" fill="black"/>
<path d="M156.065 114.055C156.016 114.054 155.97 114.034 155.936 113.999C155.901 113.965 155.881 113.919 155.88 113.87V91.04L134.105 103.61C134.085 103.623 134.062 103.632 134.038 103.636C134.014 103.64 133.989 103.639 133.966 103.633C133.942 103.626 133.92 103.616 133.901 103.6C133.882 103.585 133.866 103.566 133.855 103.545C133.842 103.524 133.834 103.501 133.831 103.477C133.827 103.452 133.828 103.428 133.834 103.404C133.84 103.38 133.851 103.358 133.866 103.338C133.881 103.319 133.899 103.302 133.92 103.29L156 90.56C156.028 90.5427 156.06 90.5335 156.093 90.5335C156.125 90.5335 156.157 90.5427 156.185 90.56C156.213 90.5765 156.236 90.6 156.251 90.628C156.267 90.6561 156.275 90.6878 156.275 90.72V113.87C156.275 113.897 156.27 113.923 156.259 113.947C156.248 113.971 156.232 113.993 156.212 114.01C156.192 114.028 156.169 114.041 156.144 114.049C156.118 114.056 156.091 114.059 156.065 114.055Z" fill="#FAFAFA"/>
<path d="M152.055 108.265H152C151.952 108.254 151.911 108.225 151.885 108.184C151.858 108.143 151.85 108.093 151.86 108.045L155.59 91.89L148.19 104.705C148.178 104.726 148.163 104.745 148.144 104.76C148.125 104.776 148.103 104.787 148.08 104.793C148.057 104.8 148.032 104.802 148.008 104.798C147.984 104.795 147.961 104.787 147.94 104.775C147.918 104.763 147.899 104.747 147.884 104.728C147.869 104.708 147.858 104.686 147.851 104.662C147.845 104.638 147.843 104.614 147.846 104.589C147.849 104.565 147.858 104.541 147.87 104.52L155.87 90.63C155.893 90.5918 155.928 90.5629 155.97 90.5483C156.012 90.5337 156.058 90.5343 156.1 90.55C156.141 90.5667 156.175 90.5976 156.195 90.6371C156.215 90.6765 156.22 90.7219 156.21 90.765L152.21 108.13C152.201 108.166 152.181 108.198 152.154 108.222C152.126 108.246 152.091 108.261 152.055 108.265Z" fill="#FAFAFA"/>
<path d="M144.04 102.5C144.014 102.5 143.989 102.495 143.966 102.484C143.943 102.474 143.922 102.459 143.905 102.44C143.871 102.405 143.852 102.359 143.852 102.31C143.852 102.261 143.871 102.215 143.905 102.18L155.935 90.605C155.97 90.5708 156.016 90.5516 156.065 90.5516C156.114 90.5516 156.16 90.5708 156.195 90.605C156.229 90.6405 156.249 90.688 156.249 90.7375C156.249 90.787 156.229 90.8345 156.195 90.87L144.165 102.44C144.149 102.458 144.13 102.472 144.108 102.483C144.087 102.493 144.064 102.499 144.04 102.5Z" fill="#FAFAFA"/>
<path d="M156.065 110.36C156.016 110.359 155.97 110.339 155.935 110.304C155.901 110.27 155.881 110.224 155.88 110.175C155.88 107.145 152.5 106.94 152.355 106.935C152.327 106.933 152.301 106.925 152.277 106.912C152.253 106.899 152.231 106.882 152.215 106.86C152.199 106.839 152.188 106.814 152.183 106.788C152.178 106.762 152.178 106.736 152.185 106.71C152.308 106.091 152.266 105.45 152.063 104.853C151.861 104.255 151.504 103.721 151.03 103.305C150.856 103.132 150.648 102.998 150.419 102.912C150.189 102.825 149.944 102.789 149.7 102.805C149.569 102.827 149.445 102.877 149.336 102.951C149.226 103.025 149.134 103.122 149.065 103.235C149.044 103.271 149.011 103.3 148.972 103.315C148.933 103.331 148.89 103.332 148.85 103.32C148.81 103.308 148.775 103.282 148.752 103.248C148.728 103.213 148.717 103.172 148.72 103.13C148.72 103.015 148.925 100.32 146.555 100.055C146.524 100.051 146.495 100.04 146.47 100.023C146.445 100.005 146.424 99.982 146.41 99.9549C146.396 99.9286 146.389 99.8995 146.389 99.8699C146.389 99.8403 146.396 99.8112 146.41 99.7849C146.41 99.7849 147.46 97.8199 147.055 96.8549C147.008 96.7416 146.935 96.6409 146.842 96.561C146.749 96.481 146.639 96.4241 146.52 96.3949C146.496 96.3886 146.474 96.3776 146.455 96.3624C146.435 96.3473 146.419 96.3284 146.408 96.3069C146.396 96.2853 146.389 96.2616 146.386 96.2372C146.384 96.2128 146.387 96.1882 146.395 96.1649C146.41 96.1186 146.442 96.0797 146.485 96.0565C146.528 96.0332 146.578 96.0273 146.625 96.0399C146.797 96.0842 146.956 96.1684 147.09 96.2856C147.224 96.4029 147.328 96.5499 147.395 96.7149C147.78 97.6299 147.13 99.1449 146.85 99.7149C148.69 100.07 149.03 101.805 149.08 102.665C149.244 102.548 149.432 102.468 149.63 102.43C149.93 102.401 150.233 102.44 150.517 102.545C150.8 102.65 151.055 102.817 151.265 103.035C151.761 103.473 152.142 104.028 152.371 104.649C152.601 105.27 152.672 105.939 152.58 106.595C153.39 106.7 156.25 107.265 156.245 110.185C156.242 110.231 156.222 110.275 156.189 110.308C156.156 110.34 156.111 110.359 156.065 110.36Z" fill="#FAFAFA"/>
<path d="M156.065 105.37C156.019 105.37 155.974 105.353 155.939 105.321C155.905 105.29 155.884 105.247 155.88 105.2C155.8 104.14 155.185 102.77 154.41 102.43C154.257 102.362 154.086 102.339 153.92 102.366C153.754 102.392 153.599 102.467 153.475 102.58C153.444 102.6 153.409 102.61 153.373 102.61C153.336 102.61 153.301 102.6 153.27 102.58C153.238 102.563 153.212 102.536 153.196 102.504C153.179 102.472 153.172 102.436 153.175 102.4C153.175 102.4 153.34 100.525 152.495 99.7501C152.312 99.597 152.094 99.49 151.861 99.4378C151.628 99.3856 151.386 99.3898 151.155 99.4501C151.123 99.4569 151.09 99.4549 151.059 99.4443C151.028 99.4338 151.001 99.415 150.98 99.3901C150.959 99.365 150.944 99.3347 150.938 99.3023C150.932 99.2698 150.934 99.2363 150.945 99.2051C151.115 98.7401 151.445 97.4351 151 96.9701C150.79 96.7551 150.405 96.7351 149.85 96.9151C149.812 96.9276 149.771 96.9276 149.733 96.915C149.696 96.9024 149.663 96.8779 149.64 96.8451C149.617 96.813 149.605 96.7745 149.605 96.7351C149.605 96.6957 149.617 96.6573 149.64 96.6251C149.95 96.2351 150.715 95.0951 150.525 94.5501C150.494 94.4748 150.443 94.4092 150.378 94.36C150.313 94.3108 150.236 94.2798 150.155 94.2701C150.131 94.2643 150.109 94.2538 150.089 94.2393C150.07 94.2248 150.053 94.2066 150.041 94.1857C150.028 94.1648 150.02 94.1416 150.016 94.1175C150.013 94.0933 150.014 94.0688 150.02 94.0451C150.025 94.0213 150.034 93.9987 150.048 93.9787C150.062 93.9587 150.08 93.9419 150.1 93.9292C150.121 93.9165 150.144 93.9082 150.168 93.905C150.192 93.9017 150.217 93.9034 150.24 93.9101C150.38 93.9306 150.513 93.9875 150.624 94.0753C150.736 94.163 150.822 94.2785 150.875 94.4101C151.08 95.0051 150.58 95.9101 150.23 96.4101C150.41 96.3672 150.598 96.369 150.778 96.4151C150.957 96.4613 151.123 96.5506 151.26 96.6751C151.81 97.2451 151.545 98.4501 151.38 99.0151C151.624 98.986 151.871 99.0088 152.106 99.082C152.34 99.1553 152.556 99.2773 152.74 99.4401C153.485 100.12 153.565 101.44 153.555 102.045C153.711 101.972 153.882 101.933 154.055 101.933C154.228 101.933 154.399 101.972 154.555 102.045C155.5 102.46 156.155 103.935 156.25 105.13C156.252 105.154 156.249 105.178 156.242 105.201C156.234 105.224 156.222 105.245 156.206 105.264C156.191 105.282 156.171 105.297 156.149 105.307C156.128 105.318 156.104 105.324 156.08 105.325L156.065 105.37Z" fill="#FAFAFA"/>
<path d="M166.836 82.62C166.812 82.3545 166.718 82.1002 166.563 81.8831C166.409 81.666 166.199 81.4941 165.956 81.385L136.151 64.175C135.488 63.8398 134.756 63.6651 134.013 63.6651C133.271 63.6651 132.538 63.8398 131.876 64.175L86.0358 90.645C85.7926 90.7541 85.5829 90.926 85.4282 91.1431C85.2735 91.3602 85.1795 91.6145 85.1558 91.88V94.195C85.1795 94.4605 85.2735 94.7148 85.4282 94.9319C85.5829 95.149 85.7926 95.3209 86.0358 95.43L115.841 112.635C116.503 112.973 117.235 113.149 117.978 113.149C118.721 113.149 119.454 112.973 120.116 112.635L165.956 86.17C166.199 86.0609 166.409 85.889 166.563 85.6719C166.718 85.4548 166.812 85.2005 166.836 84.935V82.62Z" fill="#37474F"/>
<path d="M115.84 110.32L86.0349 93.115C84.8549 92.43 84.8549 91.325 86.0349 90.645L131.875 64.175C132.538 63.8397 133.27 63.6651 134.012 63.6651C134.755 63.6651 135.487 63.8397 136.15 64.175L165.955 81.385C167.14 82.07 167.14 83.17 165.955 83.855L120.115 110.32C119.453 110.658 118.72 110.834 117.977 110.834C117.234 110.834 116.502 110.658 115.84 110.32Z" fill="#455A64"/>
<path opacity="0.1" d="M160.075 89.56L146.045 106.925L121.99 120.815L121.985 111.555L160.075 89.56Z" fill="black"/>
<path opacity="0.1" d="M158.07 116.18L146.045 132.385L121.99 146.28V137.015L158.07 116.18Z" fill="black"/>
<path opacity="0.1" d="M158.07 141.645L146.045 157.85L121.99 171.745V162.48L158.07 141.645Z" fill="black"/>
<path d="M102.89 192.22L66.01 213.515L24.48 189.48L61.36 168.19L102.89 192.22Z" fill="#FF5722"/>
<path opacity="0.5" d="M102.89 192.22L66.01 213.515L24.48 189.48L61.36 168.19L102.89 192.22Z" fill="black"/>
<path d="M61.36 139.325V168.19L24.48 189.48V160.62L61.36 139.325Z" fill="#FF5722"/>
<path opacity="0.23" d="M61.36 139.325V168.19L24.48 189.48V160.62L61.36 139.325Z" fill="black"/>
<path d="M66.01 184.65V213.515L24.48 189.48V160.62L66.01 184.65Z" fill="#FF5722"/>
<path opacity="0.38" d="M66.01 184.65V213.515L24.48 189.48V160.62L66.01 184.65Z" fill="black"/>
<path d="M102.89 163.355V192.22L61.3599 168.19V139.325L102.89 163.355Z" fill="#FF5722"/>
<path opacity="0.4" d="M102.89 163.355V192.22L61.3599 168.19V139.325L102.89 163.355Z" fill="black"/>
<path d="M102.89 192.22V163.355L66.0098 184.65V213.515L102.89 192.22Z" fill="#FF5722"/>
<path opacity="0.23" d="M102.89 192.22V163.355L66.0098 184.65V213.515L102.89 192.22Z" fill="black"/>
<path d="M61.3599 139.325L61.4099 123.345L102.84 147.405L102.89 163.355L61.3599 139.325Z" fill="#FF5722"/>
<path opacity="0.2" d="M61.3599 139.325L61.4099 123.345L102.84 147.405L102.89 163.355L61.3599 139.325Z" fill="black"/>
<path d="M66.0098 184.65L69.4698 170.67L106.015 149.57L102.89 163.355L66.0098 184.65Z" fill="#FF5722"/>
<path opacity="0.3" d="M66.0098 184.65L69.4698 170.67L106.015 149.57L102.89 163.355L66.0098 184.65Z" fill="black"/>
<path d="M24.4796 160.62L20.0796 146.12L56.9596 124.83L61.3596 139.325L24.4796 160.62Z" fill="#FF5722"/>
<path opacity="0.1" d="M24.4796 160.62L20.0796 146.12L56.9596 124.83L61.3596 139.325L24.4796 160.62Z" fill="black"/>
<path d="M24.4798 160.62L15.7998 148.635L57.3348 172.665L66.0098 184.65L24.4798 160.62Z" fill="#FF5722"/>
<path opacity="0.45" d="M24.4798 160.62L15.7998 148.635L57.3348 172.665L66.0098 184.65L24.4798 160.62Z" fill="black"/>
<g opacity="0.7">
<path opacity="0.7" d="M76.8696 204.93C76.8095 204.93 76.7517 204.907 76.7088 204.864C76.6658 204.822 76.641 204.765 76.6396 204.705V199.625C76.6409 199.564 76.6656 199.507 76.7084 199.464C76.7513 199.421 76.809 199.396 76.8696 199.395C76.9298 199.396 76.987 199.421 77.0291 199.464C77.0711 199.507 77.0947 199.565 77.0946 199.625V204.705C77.0946 204.765 77.0709 204.822 77.0287 204.864C76.9865 204.906 76.9293 204.93 76.8696 204.93Z" fill="white"/>
<path opacity="0.7" d="M76.2046 201.385C76.1748 201.39 76.1444 201.39 76.1146 201.385C76.06 201.36 76.0172 201.315 75.9948 201.259C75.9725 201.203 75.9724 201.141 75.9946 201.085L76.8046 199.22L77.7046 200.26C77.7368 200.307 77.7507 200.363 77.7436 200.42C77.7366 200.476 77.7091 200.527 77.6663 200.565C77.6236 200.602 77.5687 200.622 77.5121 200.621C77.4555 200.62 77.4012 200.598 77.3596 200.56L76.9346 200.06L76.4346 201.26C76.4129 201.301 76.3795 201.335 76.3386 201.358C76.2976 201.38 76.251 201.389 76.2046 201.385Z" fill="white"/>
<path opacity="0.7" d="M78.9647 203.735C78.9046 203.734 78.8474 203.709 78.8053 203.666C78.7633 203.623 78.7397 203.565 78.7397 203.505V198.43C78.7397 198.37 78.7635 198.313 78.8056 198.271C78.8478 198.229 78.9051 198.205 78.9647 198.205C79.0244 198.205 79.0816 198.229 79.1238 198.271C79.166 198.313 79.1897 198.37 79.1897 198.43V203.5C79.1904 203.53 79.1851 203.56 79.1742 203.589C79.1632 203.617 79.1468 203.642 79.1259 203.664C79.105 203.686 79.08 203.704 79.0524 203.716C79.0247 203.728 78.9949 203.734 78.9647 203.735Z" fill="white"/>
<path opacity="0.7" d="M78.2996 200.19C78.2698 200.195 78.2394 200.195 78.2096 200.19C78.1822 200.178 78.1574 200.161 78.1367 200.139C78.116 200.118 78.0998 200.092 78.0891 200.064C78.0784 200.036 78.0734 200.006 78.0743 199.977C78.0753 199.947 78.0822 199.917 78.0946 199.89L78.8996 198L79.7996 199.035C79.8412 199.078 79.8644 199.135 79.8644 199.195C79.8644 199.255 79.8412 199.312 79.7996 199.355C79.7787 199.376 79.7538 199.393 79.7263 199.404C79.6988 199.416 79.6694 199.422 79.6396 199.422C79.6098 199.422 79.5804 199.416 79.5529 199.404C79.5254 199.393 79.5005 199.376 79.4796 199.355L79.0546 198.855L78.5546 200.055C78.5339 200.103 78.4973 200.143 78.4509 200.167C78.4045 200.192 78.3511 200.2 78.2996 200.19Z" fill="white"/>
</g>
<g opacity="0.7">
<path opacity="0.7" d="M70.825 208.375C70.7396 208.376 70.6552 208.356 70.58 208.315C70.4896 208.257 70.4164 208.176 70.368 208.08C70.3197 207.984 70.2979 207.877 70.305 207.77V207.145C70.3063 207.085 70.3311 207.028 70.3741 206.986C70.4171 206.944 70.4749 206.92 70.535 206.92C70.5947 206.92 70.6519 206.944 70.6941 206.986C70.7363 207.028 70.76 207.085 70.76 207.145V207.77C70.76 207.86 70.76 207.91 70.805 207.92C70.85 207.93 70.875 207.92 70.95 207.88C71.0907 207.75 71.2016 207.591 71.275 207.414C71.3484 207.237 71.3825 207.047 71.375 206.855V204.255C71.375 204.195 71.3987 204.138 71.4409 204.096C71.4831 204.054 71.5403 204.03 71.6 204.03C71.6597 204.03 71.7169 204.054 71.7591 204.096C71.8013 204.138 71.825 204.195 71.825 204.255V206.855C71.8362 207.125 71.7836 207.394 71.6716 207.64C71.5595 207.886 71.3911 208.102 71.18 208.27C71.0732 208.336 70.9506 208.372 70.825 208.375Z" fill="white"/>
<path opacity="0.7" d="M68.4399 206.28V205.89C68.4994 204.889 68.7921 203.915 69.2947 203.047C69.7974 202.179 70.4961 201.44 71.3349 200.89C72.1549 200.42 72.9349 200.35 73.535 200.7C73.855 200.92 74.1101 201.221 74.2737 201.573C74.4373 201.925 74.5034 202.314 74.4649 202.7V202.83L68.4399 206.28ZM72.6949 200.91C72.2946 200.928 71.9056 201.049 71.5649 201.26C70.8461 201.733 70.2374 202.355 69.7802 203.084C69.3229 203.813 69.0278 204.632 68.9149 205.485L73.9999 202.545C74.0217 202.255 73.9682 201.965 73.8446 201.702C73.7211 201.44 73.5318 201.213 73.2949 201.045C73.1102 200.948 72.9033 200.902 72.6949 200.91Z" fill="white"/>
</g>
<path opacity="0.7" d="M15.7998 148.635L57.3348 172.665L66.0098 184.65L56.8748 173.09L15.7998 148.635Z" fill="white"/>
<path opacity="0.7" d="M102.89 163.355L66.0098 184.65V213.515L66.6998 185.23L102.89 163.355Z" fill="white"/>
<path d="M48.7701 151.81C52.5751 151.26 56.0501 148.81 58.2701 145.73C59.3054 144.291 60.068 142.674 60.5201 140.96C61.0002 139.357 61.0792 137.661 60.7501 136.02C60.0651 133.275 57.5251 131.65 54.8401 131.31C53.4777 131.131 52.0922 131.266 50.7901 131.705C49.4399 132.168 48.2685 133.042 47.4401 134.205C46.9207 134.824 46.5939 135.582 46.5001 136.385C46.4921 136.699 46.603 137.005 46.8106 137.242C47.0182 137.478 47.3072 137.627 47.6201 137.66C48.4252 137.728 49.2298 137.523 49.9051 137.08C50.7286 136.618 51.4538 136 52.0401 135.26C53.2977 133.708 54.2388 131.924 54.8101 130.01C55.211 128.367 55.211 126.652 54.8101 125.01C54.5056 123.292 53.7202 121.695 52.5451 120.405C51.1979 119.18 49.4884 118.427 47.6751 118.26C45.8705 118.012 44.033 118.183 42.3051 118.76C41.5462 118.99 40.8431 119.375 40.2401 119.89C39.8101 120.29 39.3201 120.95 39.4951 121.6C39.6701 122.25 40.6201 122.54 41.2651 122.455C42.2197 122.276 43.0941 121.802 43.7651 121.1C44.5129 120.364 45.1481 119.521 45.6501 118.6C46.0231 117.938 46.2178 117.19 46.2151 116.43C46.1501 113.26 42.6451 111.21 39.9001 110.63C39.1591 110.475 38.4001 110.425 37.6451 110.48C37.3901 110.48 37.5451 110.9 37.7501 110.885C39.2272 110.818 40.6952 111.149 42.0001 111.845C43.2875 112.437 44.3687 113.399 45.1051 114.61C45.4333 115.207 45.5953 115.881 45.5742 116.561C45.553 117.242 45.3496 117.905 44.9851 118.48C44.4955 119.333 43.886 120.11 43.1751 120.79C42.5801 121.33 41.6751 121.955 40.8401 121.895C40.7022 121.895 40.5673 121.855 40.4505 121.782C40.3338 121.709 40.2401 121.604 40.1801 121.48C40.1549 121.316 40.1685 121.148 40.2197 120.99C40.2709 120.832 40.3584 120.688 40.4751 120.57C40.9166 120.094 41.4627 119.728 42.0701 119.5C43.5701 118.876 45.1944 118.609 46.8151 118.72C48.4853 118.75 50.1097 119.272 51.4851 120.22C52.6833 121.215 53.5343 122.565 53.9151 124.075C54.3975 125.609 54.5475 127.228 54.3551 128.825C54.0582 130.431 53.4409 131.962 52.5401 133.325C51.6151 134.855 50.4551 136.325 48.7151 136.925C48.2851 137.08 47.3851 137.305 47.2151 136.68C47.0451 136.055 47.5351 135.285 47.8501 134.8C48.5467 133.704 49.5622 132.847 50.7601 132.345C51.9161 131.882 53.1639 131.693 54.4051 131.795C56.7601 131.97 59.1501 133.2 59.9701 135.54C60.3814 136.938 60.4262 138.419 60.1001 139.84C59.806 141.397 59.2461 142.892 58.4451 144.26C56.7221 147.165 54.1126 149.442 51.0001 150.755C50.2601 151.075 49.5001 151.345 48.7251 151.595C48.6451 151.625 48.6801 151.825 48.7701 151.81Z" fill="#E0E0E0"/>
<path d="M32.8749 108.4C30.8749 108.255 28.1199 109.83 29.0999 110.98C30.0799 112.13 32.6799 110.27 32.6799 110.27C32.6799 110.27 32.4349 112.595 33.2849 112.86C34.1349 113.125 35.2849 110.905 34.4349 109.485C34.8449 109.647 35.289 109.702 35.726 109.646C36.1631 109.59 36.5789 109.425 36.9349 109.165C38.1449 108.275 36.8649 107.435 35.1599 107.585C35.1599 107.585 36.3799 103.585 33.9149 104.35C32.6799 104.725 32.2449 106.17 32.8749 108.4Z" fill="#FF5722"/>
<path opacity="0.65" d="M32.8749 108.4C30.8749 108.255 28.1199 109.83 29.0999 110.98C30.0799 112.13 32.6799 110.27 32.6799 110.27C32.6799 110.27 32.4349 112.595 33.2849 112.86C34.1349 113.125 35.2849 110.905 34.4349 109.485C34.8449 109.647 35.289 109.702 35.726 109.646C36.1631 109.59 36.5789 109.425 36.9349 109.165C38.1449 108.275 36.8649 107.435 35.1599 107.585C35.1599 107.585 36.3799 103.585 33.9149 104.35C32.6799 104.725 32.2449 106.17 32.8749 108.4Z" fill="white"/>
<path d="M34.7351 109.25C34.6245 109.142 34.5076 109.04 34.3851 108.945C34.2101 108.81 34.0251 108.68 33.8501 108.55C33.6797 108.426 33.501 108.314 33.3151 108.215C33.2082 108.156 33.098 108.102 32.9851 108.055C32.8293 107.982 32.656 107.954 32.4851 107.975C32.4404 107.976 32.3967 107.989 32.3588 108.013C32.321 108.037 32.2902 108.071 32.2697 108.111C32.2493 108.151 32.2399 108.195 32.2426 108.24C32.2454 108.285 32.26 108.328 32.2851 108.365C32.4226 108.514 32.5942 108.627 32.7851 108.695L33.0551 108.84C33.2401 108.95 33.4051 109.075 33.5551 109.2C33.7051 109.325 33.9051 109.445 34.0551 109.57C34.313 109.779 34.6014 109.948 34.9101 110.07C34.924 110.077 34.9394 110.081 34.9551 110.081C34.9708 110.081 34.9863 110.077 35.0001 110.07C35.2551 109.87 34.8801 109.395 34.7351 109.25Z" fill="#455A64"/>
<path d="M194.14 53.3949C191.955 56.3349 189.03 72.4999 187.925 77.6849C182.61 77.5299 175.5 77.2799 172.81 76.9999C169.81 76.6849 163.405 76.0699 160.26 76.4999C152.455 77.4999 152.76 82.6299 152.95 83.9699C153.155 85.4999 154.25 86.1999 158.45 85.2449C159.39 85.0384 160.348 84.9262 161.31 84.91C161.715 84.91 162.57 84.7049 162.89 85.0499C163.39 85.5499 161.945 86.3899 161.585 86.6199C161.03 86.9799 160.45 87.4349 160.335 88.0849C160.302 88.2038 160.304 88.3296 160.34 88.4475C160.376 88.5653 160.446 88.6703 160.54 88.7499C160.743 88.833 160.971 88.833 161.175 88.7499C163.092 88.295 164.941 87.5907 166.675 86.6549C167.329 86.2608 168.016 85.9261 168.73 85.6549C169.815 85.3049 170.935 85.5099 172.025 85.5099C174.37 85.5099 186.765 86.7399 192.275 87.2999C196.09 87.6849 196.495 83.9199 197.81 80.1049C199.425 75.3749 203.25 50.4999 203.25 50.4999C199.39 49.9399 196.74 49.9049 194.14 53.3949Z" fill="#FFA8A7"/>
<path d="M203.31 50.11C201.465 49.77 197.31 49.255 195.05 51.78C192.79 54.305 192.255 56.955 191.26 60.78C190.265 64.605 188.5 71.455 188.5 71.455C188.5 71.455 191.415 75.64 200.54 74.455L203.31 50.11Z" fill="#37474F"/>
<path d="M226.225 182.32L219.81 182.325L217.965 168.4L226.06 168.08L226.225 182.32Z" fill="#FFA8A7"/>
<path d="M204.925 175.365C203.835 177.26 200.33 177.105 197.425 176.435L197.09 162.745L205.665 162.405L204.925 175.365Z" fill="#FFA8A7"/>
<path d="M225.79 94.33C226.02 100.255 225.235 135.29 225.235 135.29C225.45 136.99 227.21 139.955 227.575 146.09C228.11 155 226.295 174 226.295 174C226.295 174 222.62 175.92 218.66 174.45C218.66 174.45 214.63 146.95 213.16 138.16C211.89 130.51 210.26 109.99 210.26 109.99L207.095 136.29C207.675 139.403 207.915 142.57 207.81 145.735C207.68 149.825 205.35 169.685 205.35 169.685C202.692 170.555 199.836 170.622 197.14 169.88C197.14 169.88 195.23 139.06 195.01 135.325C194.76 131.065 194.93 93.46 194.93 93.46L225.79 94.33Z" fill="#FF5722"/>
<path opacity="0.2" d="M210.27 110C210.27 110 204.665 108.41 200.845 105C200.845 105 202.635 108.055 207.705 110.765L207.415 133.72L210.27 110Z" fill="black"/>
<path d="M212.5 193.935C212.295 194.145 212.415 195.53 212.665 195.89C212.915 196.25 214.445 197.47 217.1 197.56C219.635 197.64 221.875 197.21 223.32 196.21C224.765 195.21 225.445 194.145 225.53 192.71C225.615 191.275 225.4 189.88 226.03 188.745C226.625 187.7 227.59 186.505 227.785 185.94C228.22 184.715 227.69 183.01 227.69 183.01L212.5 193.935Z" fill="#263238"/>
<path d="M218.9 181.1C218.903 181.647 218.826 182.191 218.67 182.715C218.127 184.42 217.312 186.026 216.255 187.47C215.525 188.405 214.605 189.19 213.83 190.095C213.001 190.953 212.492 192.071 212.39 193.26C212.36 195.26 214.54 195.835 216.205 196.065C218.01 196.303 219.845 196.132 221.575 195.565C222.486 195.29 223.298 194.758 223.914 194.033C224.53 193.307 224.922 192.419 225.045 191.475C225.115 190.92 225.045 190.36 225.105 189.805C225.274 188.53 225.757 187.317 226.51 186.275C226.946 185.672 227.318 185.025 227.62 184.345C228.085 183.095 227.62 181.73 227.24 180.525C226.915 179.48 226.545 178.295 226.18 178.41C226.18 178.965 226.18 179.015 225.825 179.41C225.325 179.91 225.35 180.605 224.825 181.04C224.977 180.579 225.081 180.103 225.135 179.62C225.16 179.423 225.112 179.224 225 179.06C224.819 178.913 224.607 178.811 224.38 178.76C223.589 178.526 222.777 178.374 221.955 178.305C221.173 178.202 220.379 178.227 219.605 178.38C219.376 178.433 219.172 178.562 219.025 178.745C218.896 178.95 218.832 179.188 218.84 179.43C218.84 179.755 218.895 180.57 218.9 181.1Z" fill="#455A64"/>
<path d="M217 186.365C217.72 185.785 219.37 185.71 220.28 185.775C221.202 185.817 222.098 186.092 222.885 186.575C223.001 186.652 223.14 186.686 223.279 186.669C223.417 186.653 223.545 186.587 223.64 186.485C223.695 186.427 223.737 186.357 223.763 186.281C223.788 186.205 223.797 186.124 223.789 186.044C223.78 185.964 223.754 185.887 223.713 185.818C223.672 185.749 223.616 185.69 223.55 185.645C222.681 185.056 221.664 184.723 220.615 184.685C218.385 184.62 217.75 185.025 217.75 185.025C217.75 185.025 216.755 185.715 217 186.365Z" fill="#F5F5F5"/>
<path d="M215.38 188.465C216.285 187.88 218.11 187.885 219.015 187.965C219.922 188.022 220.798 188.317 221.555 188.82C221.67 188.897 221.809 188.93 221.947 188.914C222.084 188.897 222.211 188.832 222.305 188.73C222.361 188.672 222.404 188.603 222.431 188.527C222.457 188.451 222.467 188.37 222.459 188.29C222.451 188.21 222.425 188.133 222.384 188.063C222.343 187.994 222.287 187.935 222.22 187.89C221.336 187.27 220.297 186.91 219.22 186.85C216.985 186.78 216.425 187.255 216.425 187.255C216.171 187.365 215.945 187.531 215.764 187.74C215.583 187.95 215.452 188.198 215.38 188.465Z" fill="#F5F5F5"/>
<path d="M221.415 182.525C220.471 182.396 219.51 182.513 218.625 182.865C218.245 183.1 218.01 183.73 218.265 183.865C219.039 183.517 219.888 183.366 220.735 183.425C221.572 183.474 222.394 183.667 223.165 183.995C223.36 184.07 223.59 184.18 223.79 184.28C223.854 184.313 223.924 184.332 223.996 184.337C224.067 184.342 224.139 184.332 224.207 184.308C224.275 184.284 224.337 184.247 224.39 184.198C224.443 184.15 224.485 184.091 224.515 184.025C224.562 183.911 224.566 183.784 224.525 183.668C224.485 183.552 224.403 183.455 224.295 183.395C223.408 182.901 222.426 182.605 221.415 182.525Z" fill="#F5F5F5"/>
<path d="M182.765 183.905C182.537 184.476 182.537 185.113 182.765 185.685C182.985 186.22 185.635 187.88 189.315 187.81C192.051 187.743 194.72 186.946 197.045 185.5C198.49 184.64 199.955 184.535 201.775 184.5C203.595 184.465 206.025 183.69 206.465 182.86C206.905 182.03 206.515 180.545 206.515 180.545L182.765 183.905Z" fill="#263238"/>
<path d="M198.115 173.155L197.83 173.08C197.668 173.031 197.498 173.016 197.33 173.035C197.15 173.078 196.988 173.176 196.865 173.315C196.487 173.758 196.152 174.237 195.865 174.745C195.04 175.96 193.365 176.925 191.565 177.79C190.335 178.375 189.14 178.82 187.875 179.315C186.61 179.81 184.875 180.09 183.875 180.71C182.375 181.615 182.09 184.04 183.68 185.08C185.06 185.98 188.74 187.055 192.68 186.135C194.835 185.635 197.305 183.475 200.105 183.39C201.89 183.335 205.27 182.995 206.475 181.7C206.93 181.125 206.475 179.2 206.07 177.54C205.65 175.73 205.84 173.04 205.03 173.04L204.98 173.945C204.905 174.215 204.27 174.48 204.07 174.69L203.35 175.45C203.055 175.802 202.695 176.094 202.29 176.31C201.575 176.63 200.74 176.44 199.975 176.24C199.945 176.24 200.36 174.85 200.405 174.715C200.45 174.609 200.464 174.493 200.445 174.38C200.407 174.269 200.331 174.175 200.23 174.115C199.599 173.652 198.879 173.326 198.115 173.155Z" fill="#455A64"/>
<path d="M193.274 176.9C193.414 176.662 193.612 176.462 193.848 176.32C194.085 176.178 194.353 176.097 194.629 176.085C195.444 175.975 196.839 176.635 197.694 177.41C197.775 177.483 197.837 177.574 197.874 177.676C197.911 177.778 197.923 177.887 197.908 177.995C197.893 178.102 197.852 178.204 197.789 178.292C197.726 178.381 197.642 178.452 197.544 178.5C197.422 178.56 197.285 178.581 197.15 178.56C197.016 178.538 196.891 178.475 196.794 178.38C195.858 177.448 194.596 176.917 193.274 176.9Z" fill="#F5F5F5"/>
<path d="M190.705 178.185C190.892 177.945 191.134 177.754 191.411 177.628C191.688 177.502 191.991 177.444 192.295 177.46C192.295 177.46 194.405 177.62 195.65 178.9C195.726 178.97 195.785 179.058 195.821 179.156C195.856 179.253 195.868 179.358 195.854 179.462C195.84 179.565 195.802 179.663 195.742 179.748C195.682 179.833 195.602 179.902 195.51 179.95C195.392 180.007 195.259 180.027 195.129 180.007C194.999 179.986 194.879 179.926 194.785 179.835C194.272 179.271 193.639 178.83 192.933 178.544C192.227 178.259 191.465 178.136 190.705 178.185Z" fill="#F5F5F5"/>
<path d="M187.88 179.315C188.092 179.095 188.35 178.924 188.634 178.812C188.919 178.701 189.225 178.652 189.53 178.67C190.725 178.802 191.849 179.308 192.74 180.115C192.817 180.186 192.875 180.274 192.911 180.372C192.947 180.47 192.958 180.575 192.944 180.679C192.93 180.782 192.892 180.881 192.832 180.966C192.772 181.052 192.692 181.122 192.6 181.17C192.482 181.228 192.348 181.248 192.218 181.227C192.088 181.205 191.968 181.143 191.875 181.05C191.39 180.47 190.776 180.012 190.082 179.71C189.389 179.409 188.635 179.274 187.88 179.315Z" fill="#F5F5F5"/>
<path d="M214 50.22C216.36 50.49 219.15 50.635 221.405 50.93C224.31 51.31 226.575 54.315 227.285 58.965C228.065 64.085 224.785 78.765 224.785 78.765L225.83 96.075C221.575 99.21 203.455 100.855 194.425 94.335C194.425 94.335 194.635 64.875 195.34 60.335C196.31 54.11 197.84 50.245 204.84 49.8L214 50.22Z" fill="#455A64"/>
<path d="M230.135 87.72C229.37 89 228.6 90.28 227.81 91.545C227.52 92.015 227.225 92.48 226.92 92.94C226.755 93.1651 226.561 93.3684 226.345 93.545C225.965 93.805 225.175 93.64 224.715 93.655C222.455 93.7317 220.202 93.8983 217.955 94.155C217.767 94.1491 217.58 94.1846 217.407 94.2589C217.234 94.3332 217.08 94.4445 216.955 94.585C216.863 94.7786 216.844 94.9993 216.903 95.2055C216.962 95.4118 217.094 95.5894 217.275 95.705C217.643 95.9259 218.061 96.0498 218.49 96.065L220.44 96.295C220.718 96.3043 220.988 96.3909 221.22 96.545C221.93 97.12 220.575 97.81 220.17 98.09C219.356 98.6558 218.486 99.1383 217.575 99.53C213.51 101.24 213.015 102.48 213.765 103.89C214.415 105.115 217.225 109.57 224.365 105.735C227.24 104.19 231.615 99.31 233.61 96.95C236.48 93.545 241.335 85.95 241.335 85.95C244.095 82.16 244.45 80.605 244.515 79.03C244.58 77.455 236.015 65.34 233.105 61.085C230.195 56.83 228.81 51.655 221.405 50.945C221.405 50.945 218.585 59.885 223.255 65.67L234.04 80.715C234.04 80.715 231.185 85.965 230.135 87.72Z" fill="#FFA8A7"/>
<path d="M237.96 66.855C236.575 64.855 235.13 62.795 233.735 60.755C227.86 52.18 228.355 50.61 219.885 50.49C219.135 51.64 218.69 56.59 219.82 61.56C220.765 65.735 224.32 68.68 224.32 68.68L228.56 74.425C228.56 74.425 231.155 74.345 234.265 72.065C236.061 70.8069 237.366 68.9661 237.96 66.855Z" fill="#37474F"/>
<path d="M219.585 27.685C219.159 27.0505 218.569 26.5434 217.878 26.2176C217.187 25.8918 216.42 25.7596 215.66 25.835L215.22 36.57L214.5 40.535L214.625 44.95C215.043 44.8909 215.439 44.7269 215.777 44.4734C216.114 44.2198 216.382 43.8849 216.555 43.5C217.215 42.23 219.055 36.09 219.055 36.09C220.705 31.045 220.355 28.765 219.585 27.685Z" fill="#263238"/>
<path d="M214.72 36.6199C214.906 35.9675 215.263 35.3769 215.755 34.9099C216.37 34.2499 218.82 33.5349 219.935 35.6149C221.05 37.6949 219.17 40.4399 217.72 41.2799C215.865 42.3599 214.775 40.8899 214.775 40.8899L214.82 50.7749C213.955 52.7749 210.05 54.5549 207.725 54.2749C205.875 54.0399 204.17 52.5849 205.825 50.4649L205.69 47.6449C205.69 47.6449 203.215 48.1449 201.99 48.0199C199.955 47.8099 198.6 46.2749 197.88 44.1149C196.72 40.6449 196.205 37.8249 196.695 30.8649C197.235 23.2399 206.05 22.7249 210.965 25.4849C215.88 28.2449 214.72 36.6199 214.72 36.6199Z" fill="#FFA8A7"/>
<path d="M193.89 22.945C193.665 21.28 194.24 19.495 195.985 18.905C196.625 18.6371 197.328 18.5555 198.013 18.6696C198.697 18.7837 199.336 19.0889 199.855 19.55C200.073 18.9626 200.452 18.4478 200.947 18.0636C201.442 17.6793 202.035 17.4408 202.658 17.3749C203.281 17.3089 203.911 17.4181 204.475 17.6901C205.04 17.9622 205.518 18.3864 205.855 18.915C206.318 18.2109 207.034 17.7116 207.855 17.52C208.361 17.407 208.884 17.3965 209.394 17.4893C209.904 17.582 210.391 17.7761 210.825 18.06C211.535 18.585 212.37 19.56 212.16 20.825C213.565 20.26 215.03 20.73 216.075 21.97C216.696 22.7293 217.048 23.6738 217.075 24.655C217.111 25.1646 217.037 25.676 216.86 26.155C216.66 26.61 216.25 26.91 216.13 27.425C215.955 27.8781 215.865 28.3594 215.865 28.845C215.98 29.685 216.165 30.525 216.275 31.345C216.393 32.1617 216.461 32.9849 216.48 33.81C216.453 34.004 216.386 34.1902 216.282 34.3558C216.177 34.5214 216.038 34.6627 215.875 34.77C215.408 35.1782 215.046 35.6927 214.82 36.27C214.645 36.63 214.475 37.52 214.13 37.77C213.065 38.515 212.945 36.105 212.895 35.64C212.826 34.5727 212.826 33.5022 212.895 32.435C212.357 32.428 211.828 32.3088 211.34 32.0849C210.851 31.861 210.415 31.5374 210.06 31.135C209.691 30.6827 209.447 30.1412 209.355 29.565C209.297 29.2348 209.27 28.9 209.275 28.565C208.58 29.715 206.965 30.185 205.815 30.065C203.885 29.89 203.22 29.065 202.91 28.46C202.788 29.0563 202.525 29.615 202.145 30.09C201.652 30.5532 201.058 30.8956 200.41 31.09C199.851 31.2391 199.262 31.2332 198.706 31.0729C198.15 30.9125 197.648 30.6039 197.255 30.18C196.47 31.305 194.48 30.805 194.04 30.49C193.04 29.765 192.715 28.9 192.605 27.665C192.495 26.43 192.995 25.02 194.365 24.535C194.118 24.0356 193.957 23.498 193.89 22.945Z" fill="#263238"/>
<path d="M205.69 47.63C205.69 47.63 210.16 46.5 211.69 45.58C212.595 45.0501 213.318 44.2587 213.765 43.31C213.572 44.2459 213.193 45.1334 212.65 45.92C211.57 47.455 205.74 48.835 205.74 48.835L205.69 47.63Z" fill="#F28F8F"/>
<path d="M205.94 36.29C205.957 36.4794 206.029 36.6597 206.147 36.8084C206.266 36.9571 206.425 37.0677 206.606 37.1265C206.787 37.1852 206.981 37.1895 207.164 37.1388C207.348 37.0882 207.512 36.9848 207.637 36.8414C207.762 36.6981 207.842 36.5213 207.867 36.3328C207.893 36.1443 207.862 35.9526 207.779 35.7815C207.696 35.6103 207.565 35.4672 207.401 35.3701C207.238 35.2729 207.05 35.226 206.86 35.235C206.599 35.2555 206.356 35.3775 206.184 35.5747C206.012 35.7719 205.924 36.0288 205.94 36.29Z" fill="#263238"/>
<path d="M204.445 43.525C204.468 43.769 204.562 44.0008 204.715 44.1917C204.869 44.3826 205.075 44.5242 205.308 44.5989C205.542 44.6736 205.792 44.678 206.028 44.6117C206.263 44.5454 206.475 44.4112 206.635 44.2258C206.795 44.0405 206.897 43.8121 206.929 43.5692C206.96 43.3262 206.92 43.0793 206.812 42.8592C206.704 42.6391 206.535 42.4555 206.323 42.3312C206.112 42.2069 205.869 42.1474 205.625 42.16C205.288 42.1869 204.976 42.3451 204.755 42.6006C204.534 42.856 204.423 43.1881 204.445 43.525Z" fill="#F28F8F"/>
<path d="M206.745 32.9599L208.805 33.9599C208.933 33.6776 208.948 33.3567 208.847 33.0637C208.745 32.7706 208.535 32.5276 208.26 32.3849C208.123 32.3196 207.974 32.2827 207.823 32.2764C207.672 32.2701 207.521 32.2945 207.379 32.3483C207.237 32.402 207.108 32.4839 206.999 32.5891C206.89 32.6942 206.804 32.8204 206.745 32.9599Z" fill="#263238"/>
<path d="M197.785 33.825L199.54 32.325C199.448 32.2053 199.333 32.1056 199.202 32.032C199.07 31.9584 198.925 31.9125 198.775 31.8971C198.625 31.8816 198.474 31.897 198.33 31.9422C198.187 31.9874 198.054 32.0615 197.94 32.16C197.706 32.3649 197.559 32.6518 197.53 32.9616C197.501 33.2713 197.592 33.5804 197.785 33.825Z" fill="#263238"/>
<path d="M198.31 36.0949C198.322 36.2799 198.388 36.4572 198.501 36.6044C198.613 36.7517 198.767 36.8624 198.942 36.9227C199.118 36.9829 199.307 36.99 199.486 36.943C199.665 36.896 199.827 36.7971 199.95 36.6587C200.073 36.5202 200.153 36.3484 200.179 36.1649C200.204 35.9813 200.176 35.7942 200.095 35.6271C200.015 35.46 199.887 35.3203 199.728 35.2256C199.569 35.131 199.385 35.0855 199.2 35.0949C198.95 35.1117 198.717 35.2259 198.55 35.4129C198.384 35.5999 198.297 35.8449 198.31 36.0949Z" fill="#263238"/>
<path d="M202.95 34.985L202.92 40.9L199.79 40L202.95 34.985Z" fill="#F28F8F"/>
<path d="M195.095 43.2599C195.124 43.2535 195.151 43.2414 195.175 43.2242C195.199 43.207 195.22 43.1852 195.235 43.16C195.253 43.1352 195.265 43.1072 195.272 43.0775C195.279 43.0478 195.279 43.017 195.274 42.9871C195.268 42.9572 195.256 42.9287 195.239 42.9034C195.222 42.8781 195.201 42.8565 195.175 42.84L192.455 41.03C192.43 41.0131 192.401 41.0014 192.372 40.9955C192.342 40.9897 192.311 40.9898 192.281 40.9958C192.252 41.0019 192.223 41.0137 192.198 41.0307C192.173 41.0478 192.152 41.0696 192.135 41.095C192.117 41.12 192.105 41.1483 192.099 41.1782C192.093 41.2081 192.093 41.239 192.099 41.2689C192.105 41.2989 192.117 41.3273 192.134 41.3524C192.152 41.3775 192.174 41.3988 192.2 41.415L194.915 43.2249C194.941 43.2437 194.97 43.2566 195.001 43.2626C195.032 43.2687 195.064 43.2677 195.095 43.2599Z" fill="#E0E0E0"/>
<path d="M194.805 44.43C194.847 44.4194 194.886 44.3976 194.917 44.3668C194.948 44.3359 194.97 44.2973 194.98 44.255C194.994 44.1946 194.983 44.1314 194.95 44.079C194.917 44.0266 194.865 43.9892 194.805 43.975L191.625 43.24C191.595 43.2325 191.565 43.231 191.535 43.2355C191.504 43.2401 191.476 43.2506 191.449 43.2664C191.423 43.2822 191.401 43.303 191.383 43.3277C191.365 43.3523 191.352 43.3803 191.345 43.41C191.332 43.4703 191.342 43.5335 191.375 43.5859C191.408 43.6383 191.46 43.6757 191.52 43.69L194.7 44.43C194.735 44.4349 194.77 44.4349 194.805 44.43Z" fill="#E0E0E0"/>
<path d="M191.85 46.545H191.88L194.945 45.425C195.002 45.4037 195.049 45.3605 195.075 45.3047C195.101 45.2489 195.103 45.1851 195.082 45.1275C195.061 45.0698 195.018 45.0229 194.962 44.9971C194.906 44.9713 194.842 44.9687 194.785 44.99L191.72 46.11C191.691 46.1205 191.665 46.1367 191.642 46.1576C191.62 46.1784 191.602 46.2036 191.589 46.2315C191.577 46.2595 191.57 46.2897 191.569 46.3203C191.568 46.351 191.574 46.3814 191.585 46.41C191.606 46.4602 191.644 46.5013 191.692 46.5261C191.741 46.5508 191.797 46.5575 191.85 46.545Z" fill="#E0E0E0"/>
<path d="M165.92 70.5299C165.983 70.6568 166.082 70.7623 166.205 70.8335C166.327 70.9047 166.468 70.9384 166.609 70.9304C166.751 70.9224 166.887 70.8731 167.001 70.7886C167.115 70.7041 167.201 70.5881 167.25 70.4549L169.53 64.8299C169.567 64.7397 169.585 64.643 169.584 64.5456C169.583 64.4481 169.562 64.3519 169.523 64.2626C169.483 64.1734 169.427 64.093 169.355 64.0263C169.284 63.9595 169.201 63.9078 169.109 63.8742C169.018 63.8405 168.92 63.8257 168.823 63.8305C168.726 63.8354 168.63 63.8598 168.543 63.9023C168.455 63.9449 168.377 64.0047 168.313 64.0781C168.249 64.1516 168.2 64.2372 168.17 64.3299L165.885 69.9549C165.851 70.0481 165.837 70.1471 165.843 70.246C165.849 70.3449 165.875 70.4415 165.92 70.5299Z" fill="#E0E0E0"/>
<path d="M162.165 70.5C162.238 70.6474 162.359 70.7656 162.507 70.8354C162.656 70.9052 162.824 70.9223 162.984 70.8839C163.144 70.8456 163.286 70.754 163.387 70.6243C163.488 70.4945 163.542 70.3343 163.54 70.17L163.465 63.17C163.45 62.9887 163.367 62.8198 163.233 62.6966C163.1 62.5735 162.924 62.5051 162.742 62.5051C162.561 62.5051 162.385 62.5735 162.252 62.6966C162.118 62.8198 162.035 62.9887 162.02 63.17L162.09 70.17C162.089 70.2843 162.114 70.3974 162.165 70.5Z" fill="#E0E0E0"/>
<path d="M155.8 66.605L155.845 66.69L159.29 71.69C159.397 71.8483 159.562 71.9581 159.749 71.9955C159.936 72.033 160.13 71.995 160.29 71.89C160.445 71.7808 160.552 71.6157 160.589 71.4292C160.625 71.2428 160.588 71.0496 160.485 70.89L157.04 65.89C156.939 65.7349 156.783 65.6243 156.604 65.5811C156.424 65.5379 156.235 65.5654 156.075 65.6578C155.915 65.7503 155.797 65.9007 155.745 66.0779C155.692 66.2552 155.71 66.4456 155.795 66.61L155.8 66.605Z" fill="#E0E0E0"/>
</svg>
