<svg width="124" height="40" viewBox="0 0 124 40" fill="none" xmlns="http://www.w3.org/2000/svg">
<path d="M64.1298 12.7875C64.0591 18.3597 69.1009 21.469 72.8989 23.3178C76.801 25.2146 78.1118 26.431 78.0963 28.1274C78.0672 30.7234 74.9837 31.8692 72.0983 31.9137C67.0641 31.9916 64.1371 30.556 61.8101 29.4702L59.9966 37.947C62.3313 39.0216 66.6544 39.9589 71.1373 40C81.6603 40 88.5447 34.8111 88.582 26.7659C88.6232 16.5554 74.4441 15.9902 74.541 11.4264C74.5744 10.0426 75.8962 8.56583 78.7928 8.19035C80.2265 8.00068 84.1844 7.85552 88.6716 9.91968L90.4328 1.7182C88.0197 0.840469 84.9182 0 81.0568 0C71.1523 0 64.186 5.25959 64.1298 12.7875ZM107.356 0.70644C105.434 0.70644 103.815 1.8261 103.092 3.5443L88.0608 39.3976H98.5761L100.669 33.6207H113.518L114.732 39.3976H124L115.912 0.70644H107.356ZM108.827 11.1584L111.862 25.6873H103.551L108.827 11.1584ZM51.3806 0.706924L43.0919 39.3971H53.1122L61.397 0.705956H51.3806V0.706924ZM36.5572 0.705956L26.1277 27.0412L21.9088 4.64944C21.4137 2.1498 19.4588 0.70644 17.2878 0.70644H0.238797L0 1.82997C3.50009 2.58867 7.47681 3.81236 9.88609 5.12169C11.3605 5.92152 11.781 6.6207 12.2653 8.52131L20.2561 39.3976H30.845L47.0793 0.70644H36.5572" fill="url(#paint0_linear)"/>
<defs>
<linearGradient id="paint0_linear" x1="57.0078" y1="40.8024" x2="58.1644" y2="-0.278255" gradientUnits="userSpaceOnUse">
<stop stop-color="#222357"/>
<stop offset="1" stop-color="#254AA5"/>
</linearGradient>
</defs>
</svg>
